%TF.GenerationSoftware,KiCad,Pcbnew,8.0.8*%
%TF.CreationDate,2025-02-14T17:31:39-08:00*%
%TF.ProjectId,ClockProject,436c6f63-6b50-4726-9f6a-6563742e6b69,rev?*%
%TF.SameCoordinates,Original*%
%TF.FileFunction,Paste,Bot*%
%TF.FilePolarity,Positive*%
%FSLAX46Y46*%
G04 Gerber Fmt 4.6, Leading zero omitted, Abs format (unit mm)*
G04 Created by KiCad (PCBNEW 8.0.8) date 2025-02-14 17:31:39*
%MOMM*%
%LPD*%
G01*
G04 APERTURE LIST*
G04 Aperture macros list*
%AMRoundRect*
0 Rectangle with rounded corners*
0 $1 Rounding radius*
0 $2 $3 $4 $5 $6 $7 $8 $9 X,Y pos of 4 corners*
0 Add a 4 corners polygon primitive as box body*
4,1,4,$2,$3,$4,$5,$6,$7,$8,$9,$2,$3,0*
0 Add four circle primitives for the rounded corners*
1,1,$1+$1,$2,$3*
1,1,$1+$1,$4,$5*
1,1,$1+$1,$6,$7*
1,1,$1+$1,$8,$9*
0 Add four rect primitives between the rounded corners*
20,1,$1+$1,$2,$3,$4,$5,0*
20,1,$1+$1,$4,$5,$6,$7,0*
20,1,$1+$1,$6,$7,$8,$9,0*
20,1,$1+$1,$8,$9,$2,$3,0*%
G04 Aperture macros list end*
%ADD10RoundRect,0.250000X0.250000X0.475000X-0.250000X0.475000X-0.250000X-0.475000X0.250000X-0.475000X0*%
%ADD11RoundRect,0.250000X0.475000X-0.250000X0.475000X0.250000X-0.475000X0.250000X-0.475000X-0.250000X0*%
%ADD12RoundRect,0.250000X-0.450000X0.262500X-0.450000X-0.262500X0.450000X-0.262500X0.450000X0.262500X0*%
%ADD13RoundRect,0.250000X0.262500X0.450000X-0.262500X0.450000X-0.262500X-0.450000X0.262500X-0.450000X0*%
%ADD14RoundRect,0.250000X-0.475000X0.250000X-0.475000X-0.250000X0.475000X-0.250000X0.475000X0.250000X0*%
%ADD15R,1.000000X2.000000*%
%ADD16R,1.000000X1.900000*%
%ADD17R,1.200000X1.400000*%
%ADD18R,2.000000X1.000000*%
%ADD19RoundRect,0.375000X0.375000X-0.625000X0.375000X0.625000X-0.375000X0.625000X-0.375000X-0.625000X0*%
%ADD20RoundRect,0.500000X1.400000X-0.500000X1.400000X0.500000X-1.400000X0.500000X-1.400000X-0.500000X0*%
%ADD21RoundRect,0.218750X0.381250X-0.218750X0.381250X0.218750X-0.381250X0.218750X-0.381250X-0.218750X0*%
%ADD22RoundRect,0.250000X-0.250000X-0.475000X0.250000X-0.475000X0.250000X0.475000X-0.250000X0.475000X0*%
%ADD23R,1.000000X0.750000*%
%ADD24RoundRect,0.250000X-0.285000X-0.285000X0.285000X-0.285000X0.285000X0.285000X-0.285000X0.285000X0*%
%ADD25RoundRect,0.050000X-0.350000X-0.050000X0.350000X-0.050000X0.350000X0.050000X-0.350000X0.050000X0*%
%ADD26RoundRect,0.050000X-0.050000X-0.350000X0.050000X-0.350000X0.050000X0.350000X-0.050000X0.350000X0*%
G04 APERTURE END LIST*
D10*
%TO.C,C4*%
X278906940Y-182592650D03*
X277006940Y-182592650D03*
%TD*%
D11*
%TO.C,C1*%
X277656940Y-193492650D03*
X277656940Y-191592650D03*
%TD*%
D12*
%TO.C,R24*%
X289906940Y-205092650D03*
X289906940Y-206917650D03*
%TD*%
D10*
%TO.C,C6*%
X270806940Y-186592650D03*
X268906940Y-186592650D03*
%TD*%
D13*
%TO.C,R8*%
X379906940Y-143092650D03*
X378081940Y-143092650D03*
%TD*%
D14*
%TO.C,C14*%
X299156940Y-168192650D03*
X299156940Y-170092650D03*
%TD*%
D15*
%TO.C,J4*%
X277286940Y-216092650D03*
X279826940Y-216092650D03*
X282366940Y-216092650D03*
X284906940Y-216092650D03*
X287446940Y-216092650D03*
X289986940Y-216092650D03*
X292526940Y-216092650D03*
%TD*%
D10*
%TO.C,C11*%
X288806940Y-190592650D03*
X286906940Y-190592650D03*
%TD*%
D14*
%TO.C,C13*%
X315156940Y-167592650D03*
X315156940Y-169492650D03*
%TD*%
D11*
%TO.C,C15*%
X301906940Y-170092650D03*
X301906940Y-168192650D03*
%TD*%
D12*
%TO.C,R25*%
X280906940Y-205092650D03*
X280906940Y-206917650D03*
%TD*%
D16*
%TO.C,J5*%
X195066940Y-203587650D03*
X192526940Y-200287650D03*
X189986940Y-203587650D03*
X187446940Y-200287650D03*
X184906940Y-203587650D03*
X182366940Y-200287650D03*
X179826940Y-203587650D03*
X177286940Y-200287650D03*
X174746940Y-203587650D03*
%TD*%
D17*
%TO.C,Y1*%
X282406940Y-191392650D03*
X282406940Y-193592650D03*
X280706940Y-193592650D03*
X280706940Y-191392650D03*
%TD*%
D12*
%TO.C,R2*%
X287156940Y-161092650D03*
X287156940Y-162917650D03*
%TD*%
D10*
%TO.C,C5*%
X270806940Y-192342650D03*
X268906940Y-192342650D03*
%TD*%
D18*
%TO.C,J3*%
X99406940Y-172972650D03*
X99406940Y-175512650D03*
X99406940Y-178052650D03*
X99406940Y-180592650D03*
X99406940Y-183132650D03*
X99406940Y-185672650D03*
X99406940Y-188212650D03*
%TD*%
D13*
%TO.C,R4*%
X365906940Y-143092650D03*
X364081940Y-143092650D03*
%TD*%
D11*
%TO.C,C3*%
X283656940Y-174492650D03*
X283656940Y-172592650D03*
%TD*%
D10*
%TO.C,C8*%
X278806940Y-184842650D03*
X276906940Y-184842650D03*
%TD*%
%TO.C,C7*%
X270806940Y-189342650D03*
X268906940Y-189342650D03*
%TD*%
%TO.C,C9*%
X277306940Y-187092650D03*
X275406940Y-187092650D03*
%TD*%
D13*
%TO.C,R3*%
X365906940Y-139092650D03*
X364081940Y-139092650D03*
%TD*%
D19*
%TO.C,U2*%
X310456940Y-171492650D03*
X308156940Y-171492650D03*
D20*
X308156940Y-165192650D03*
D19*
X305856940Y-171492650D03*
%TD*%
D12*
%TO.C,R22*%
X293656940Y-205092650D03*
X293656940Y-206917650D03*
%TD*%
%TO.C,R23*%
X285156940Y-205092650D03*
X285156940Y-206917650D03*
%TD*%
D21*
%TO.C,L1*%
X272906940Y-184467650D03*
X272906940Y-182342650D03*
%TD*%
D22*
%TO.C,C10*%
X291406940Y-176092650D03*
X293306940Y-176092650D03*
%TD*%
D23*
%TO.C,SW2*%
X293156940Y-155217650D03*
X287156940Y-155217650D03*
X293156940Y-158967650D03*
X287156940Y-158967650D03*
%TD*%
D10*
%TO.C,C12*%
X289556940Y-193342650D03*
X287656940Y-193342650D03*
%TD*%
D23*
%TO.C,SW1*%
X282656940Y-155342650D03*
X276656940Y-155342650D03*
X282656940Y-159092650D03*
X276656940Y-159092650D03*
%TD*%
D15*
%TO.C,J2*%
X277286940Y-145092650D03*
X279826940Y-145092650D03*
X282366940Y-145092650D03*
X284906940Y-145092650D03*
X287446940Y-145092650D03*
X289986940Y-145092650D03*
X292526940Y-145092650D03*
%TD*%
D12*
%TO.C,R1*%
X276656940Y-161092650D03*
X276656940Y-162917650D03*
%TD*%
D13*
%TO.C,R7*%
X379906940Y-139092650D03*
X378081940Y-139092650D03*
%TD*%
D16*
%TO.C,J6*%
X195066940Y-218837650D03*
X192526940Y-215537650D03*
X189986940Y-218837650D03*
X187446940Y-215537650D03*
X184906940Y-218837650D03*
X182366940Y-215537650D03*
X179826940Y-218837650D03*
X177286940Y-215537650D03*
X174746940Y-218837650D03*
%TD*%
D18*
%TO.C,J1*%
X470406940Y-172972650D03*
X470406940Y-175512650D03*
X470406940Y-178052650D03*
X470406940Y-180592650D03*
X470406940Y-183132650D03*
X470406940Y-185672650D03*
X470406940Y-188212650D03*
%TD*%
D13*
%TO.C,R6*%
X393981940Y-143092650D03*
X392156940Y-143092650D03*
%TD*%
D22*
%TO.C,C2*%
X280506940Y-188092650D03*
X282406940Y-188092650D03*
%TD*%
D24*
%TO.C,U1*%
X283576940Y-179262650D03*
X283576940Y-180592650D03*
X283576940Y-181922650D03*
X284906940Y-179262650D03*
X284906940Y-180592650D03*
X284906940Y-181922650D03*
X286236940Y-179262650D03*
X286236940Y-180592650D03*
X286236940Y-181922650D03*
D25*
X281456940Y-183192650D03*
X281456940Y-182792650D03*
X281456940Y-182392650D03*
X281456940Y-181992650D03*
X281456940Y-181592650D03*
X281456940Y-181192650D03*
X281456940Y-180792650D03*
X281456940Y-180392650D03*
X281456940Y-179992650D03*
X281456940Y-179592650D03*
X281456940Y-179192650D03*
X281456940Y-178792650D03*
X281456940Y-178392650D03*
X281456940Y-177992650D03*
D26*
X282306940Y-177142650D03*
X282706940Y-177142650D03*
X283106940Y-177142650D03*
X283506940Y-177142650D03*
X283906940Y-177142650D03*
X284306940Y-177142650D03*
X284706940Y-177142650D03*
X285106940Y-177142650D03*
X285506940Y-177142650D03*
X285906940Y-177142650D03*
X286306940Y-177142650D03*
X286706940Y-177142650D03*
X287106940Y-177142650D03*
X287506940Y-177142650D03*
D25*
X288356940Y-177992650D03*
X288356940Y-178392650D03*
X288356940Y-178792650D03*
X288356940Y-179192650D03*
X288356940Y-179592650D03*
X288356940Y-179992650D03*
X288356940Y-180392650D03*
X288356940Y-180792650D03*
X288356940Y-181192650D03*
X288356940Y-181592650D03*
X288356940Y-181992650D03*
X288356940Y-182392650D03*
X288356940Y-182792650D03*
X288356940Y-183192650D03*
D26*
X287506940Y-184042650D03*
X287106940Y-184042650D03*
X286706940Y-184042650D03*
X286306940Y-184042650D03*
X285906940Y-184042650D03*
X285506940Y-184042650D03*
X285106940Y-184042650D03*
X284706940Y-184042650D03*
X284306940Y-184042650D03*
X283906940Y-184042650D03*
X283506940Y-184042650D03*
X283106940Y-184042650D03*
X282706940Y-184042650D03*
X282306940Y-184042650D03*
%TD*%
D12*
%TO.C,R9*%
X274406940Y-191592650D03*
X274406940Y-193417650D03*
%TD*%
D13*
%TO.C,R5*%
X393981940Y-139092650D03*
X392156940Y-139092650D03*
%TD*%
M02*
