%TF.GenerationSoftware,KiCad,Pcbnew,8.0.8*%
%TF.CreationDate,2025-02-14T17:31:39-08:00*%
%TF.ProjectId,ClockProject,436c6f63-6b50-4726-9f6a-6563742e6b69,rev?*%
%TF.SameCoordinates,Original*%
%TF.FileFunction,Copper,L2,Bot*%
%TF.FilePolarity,Positive*%
%FSLAX46Y46*%
G04 Gerber Fmt 4.6, Leading zero omitted, Abs format (unit mm)*
G04 Created by KiCad (PCBNEW 8.0.8) date 2025-02-14 17:31:39*
%MOMM*%
%LPD*%
G01*
G04 APERTURE LIST*
G04 Aperture macros list*
%AMRoundRect*
0 Rectangle with rounded corners*
0 $1 Rounding radius*
0 $2 $3 $4 $5 $6 $7 $8 $9 X,Y pos of 4 corners*
0 Add a 4 corners polygon primitive as box body*
4,1,4,$2,$3,$4,$5,$6,$7,$8,$9,$2,$3,0*
0 Add four circle primitives for the rounded corners*
1,1,$1+$1,$2,$3*
1,1,$1+$1,$4,$5*
1,1,$1+$1,$6,$7*
1,1,$1+$1,$8,$9*
0 Add four rect primitives between the rounded corners*
20,1,$1+$1,$2,$3,$4,$5,0*
20,1,$1+$1,$4,$5,$6,$7,0*
20,1,$1+$1,$6,$7,$8,$9,0*
20,1,$1+$1,$8,$9,$2,$3,0*%
G04 Aperture macros list end*
%TA.AperFunction,NonConductor*%
%ADD10C,0.200000*%
%TD*%
%TA.AperFunction,ComponentPad*%
%ADD11R,1.700000X1.700000*%
%TD*%
%TA.AperFunction,ComponentPad*%
%ADD12O,1.700000X1.700000*%
%TD*%
%TA.AperFunction,SMDPad,CuDef*%
%ADD13RoundRect,0.250000X0.250000X0.475000X-0.250000X0.475000X-0.250000X-0.475000X0.250000X-0.475000X0*%
%TD*%
%TA.AperFunction,SMDPad,CuDef*%
%ADD14RoundRect,0.250000X0.475000X-0.250000X0.475000X0.250000X-0.475000X0.250000X-0.475000X-0.250000X0*%
%TD*%
%TA.AperFunction,SMDPad,CuDef*%
%ADD15RoundRect,0.250000X-0.450000X0.262500X-0.450000X-0.262500X0.450000X-0.262500X0.450000X0.262500X0*%
%TD*%
%TA.AperFunction,SMDPad,CuDef*%
%ADD16RoundRect,0.250000X0.262500X0.450000X-0.262500X0.450000X-0.262500X-0.450000X0.262500X-0.450000X0*%
%TD*%
%TA.AperFunction,ComponentPad*%
%ADD17C,1.308000*%
%TD*%
%TA.AperFunction,SMDPad,CuDef*%
%ADD18RoundRect,0.250000X-0.475000X0.250000X-0.475000X-0.250000X0.475000X-0.250000X0.475000X0.250000X0*%
%TD*%
%TA.AperFunction,SMDPad,CuDef*%
%ADD19R,1.000000X2.000000*%
%TD*%
%TA.AperFunction,SMDPad,CuDef*%
%ADD20R,1.000000X1.900000*%
%TD*%
%TA.AperFunction,SMDPad,CuDef*%
%ADD21R,1.200000X1.400000*%
%TD*%
%TA.AperFunction,SMDPad,CuDef*%
%ADD22R,2.000000X1.000000*%
%TD*%
%TA.AperFunction,SMDPad,CuDef*%
%ADD23RoundRect,0.375000X0.375000X-0.625000X0.375000X0.625000X-0.375000X0.625000X-0.375000X-0.625000X0*%
%TD*%
%TA.AperFunction,SMDPad,CuDef*%
%ADD24RoundRect,0.500000X1.400000X-0.500000X1.400000X0.500000X-1.400000X0.500000X-1.400000X-0.500000X0*%
%TD*%
%TA.AperFunction,SMDPad,CuDef*%
%ADD25RoundRect,0.218750X0.381250X-0.218750X0.381250X0.218750X-0.381250X0.218750X-0.381250X-0.218750X0*%
%TD*%
%TA.AperFunction,SMDPad,CuDef*%
%ADD26RoundRect,0.250000X-0.250000X-0.475000X0.250000X-0.475000X0.250000X0.475000X-0.250000X0.475000X0*%
%TD*%
%TA.AperFunction,SMDPad,CuDef*%
%ADD27R,1.000000X0.750000*%
%TD*%
%TA.AperFunction,SMDPad,CuDef*%
%ADD28RoundRect,0.050000X-0.350000X-0.050000X0.350000X-0.050000X0.350000X0.050000X-0.350000X0.050000X0*%
%TD*%
%TA.AperFunction,SMDPad,CuDef*%
%ADD29RoundRect,0.050000X-0.050000X-0.350000X0.050000X-0.350000X0.050000X0.350000X-0.050000X0.350000X0*%
%TD*%
%TA.AperFunction,HeatsinkPad*%
%ADD30R,4.000000X4.000000*%
%TD*%
%TA.AperFunction,ViaPad*%
%ADD31C,1.219200*%
%TD*%
%TA.AperFunction,ViaPad*%
%ADD32C,0.500000*%
%TD*%
%TA.AperFunction,ViaPad*%
%ADD33C,0.609600*%
%TD*%
%TA.AperFunction,Conductor*%
%ADD34C,1.000000*%
%TD*%
%TA.AperFunction,Conductor*%
%ADD35C,0.152400*%
%TD*%
%TA.AperFunction,Conductor*%
%ADD36C,0.500000*%
%TD*%
%TA.AperFunction,Conductor*%
%ADD37C,0.203200*%
%TD*%
G04 APERTURE END LIST*
D10*
X488064269Y-137342650D02*
G75*
G02*
X467249611Y-137342650I-10407329J0D01*
G01*
X467249611Y-137342650D02*
G75*
G02*
X488064269Y-137342650I10407329J0D01*
G01*
X114611000Y-137592650D02*
G75*
G02*
X75202880Y-137592650I-19704060J0D01*
G01*
X75202880Y-137592650D02*
G75*
G02*
X114611000Y-137592650I19704060J0D01*
G01*
X111413432Y-222342650D02*
G75*
G02*
X72900448Y-222342650I-19256492J0D01*
G01*
X72900448Y-222342650D02*
G75*
G02*
X111413432Y-222342650I19256492J0D01*
G01*
X495836214Y-223592650D02*
G75*
G02*
X464977666Y-223592650I-15429274J0D01*
G01*
X464977666Y-223592650D02*
G75*
G02*
X495836214Y-223592650I15429274J0D01*
G01*
D11*
%TO.P,J11,1,Pin_1*%
%TO.N,/CS1*%
X384906940Y-137342650D03*
D12*
%TO.P,J11,2,Pin_2*%
%TO.N,Net-(J11-Pin_2)*%
X384906940Y-139882650D03*
%TO.P,J11,3,Pin_3*%
%TO.N,GND*%
X384906940Y-142422650D03*
%TD*%
D13*
%TO.P,C4,1*%
%TO.N,Net-(C4-Pad1)*%
X278906940Y-182592650D03*
%TO.P,C4,2*%
%TO.N,GND*%
X277006940Y-182592650D03*
%TD*%
D11*
%TO.P,J9,1,Pin_1*%
%TO.N,+5V*%
X288656940Y-168842650D03*
D12*
%TO.P,J9,2,Pin_2*%
%TO.N,/USB_P*%
X286116940Y-168842650D03*
%TO.P,J9,3,Pin_3*%
%TO.N,/USB_N*%
X283576940Y-168842650D03*
%TO.P,J9,4,Pin_4*%
%TO.N,GND*%
X281036940Y-168842650D03*
%TD*%
D14*
%TO.P,C1,1*%
%TO.N,Net-(C1-Pad1)*%
X277656940Y-193492650D03*
%TO.P,C1,2*%
%TO.N,GND*%
X277656940Y-191592650D03*
%TD*%
D15*
%TO.P,R24,1*%
%TO.N,/UART_A*%
X289906940Y-205092650D03*
%TO.P,R24,2*%
%TO.N,/U2*%
X289906940Y-206917650D03*
%TD*%
D13*
%TO.P,C6,1*%
%TO.N,+3.3V*%
X270806940Y-186592650D03*
%TO.P,C6,2*%
%TO.N,GND*%
X268906940Y-186592650D03*
%TD*%
D16*
%TO.P,R8,1*%
%TO.N,Net-(J11-Pin_2)*%
X379906940Y-143092650D03*
%TO.P,R8,2*%
%TO.N,+3.3V*%
X378081940Y-143092650D03*
%TD*%
D17*
%TO.P,M3,A1,A1*%
%TO.N,/M3_A1*%
X346336340Y-170714591D03*
%TO.P,M3,A2,A2*%
%TO.N,/M3_A2*%
X346336340Y-178474291D03*
%TO.P,M3,A3,A3*%
%TO.N,/M3_A3*%
X323476340Y-178474291D03*
%TO.P,M3,A4,A4*%
%TO.N,/M3_A4*%
X323476340Y-170714591D03*
%TO.P,M3,B1,B1*%
%TO.N,/M3_B1*%
X323476340Y-209472450D03*
%TO.P,M3,B2,B2*%
%TO.N,/M3_B2*%
X323476340Y-201712750D03*
%TO.P,M3,B3,B3*%
%TO.N,/M3_B3*%
X346336340Y-201712750D03*
%TO.P,M3,B4,B4*%
%TO.N,/M3_B4*%
X346336340Y-209472450D03*
%TD*%
D18*
%TO.P,C14,1*%
%TO.N,GND*%
X299156940Y-168192650D03*
%TO.P,C14,2*%
%TO.N,+5V*%
X299156940Y-170092650D03*
%TD*%
D19*
%TO.P,J4,1,Pin_1*%
%TO.N,/U1*%
X277286940Y-216092650D03*
%TO.P,J4,2,Pin_2*%
%TO.N,+5V*%
X279826940Y-216092650D03*
%TO.P,J4,3,Pin_3*%
%TO.N,/IC1*%
X282366940Y-216092650D03*
%TO.P,J4,4,Pin_4*%
%TO.N,/IC2*%
X284906940Y-216092650D03*
%TO.P,J4,5,Pin_5*%
%TO.N,/IC3*%
X287446940Y-216092650D03*
%TO.P,J4,6,Pin_6*%
%TO.N,GND*%
X289986940Y-216092650D03*
%TO.P,J4,7,Pin_7*%
%TO.N,/U2*%
X292526940Y-216092650D03*
%TD*%
D13*
%TO.P,C11,1*%
%TO.N,+3.3V*%
X288806940Y-190592650D03*
%TO.P,C11,2*%
%TO.N,GND*%
X286906940Y-190592650D03*
%TD*%
D18*
%TO.P,C13,1*%
%TO.N,+3.3V*%
X315156940Y-167592650D03*
%TO.P,C13,2*%
%TO.N,GND*%
X315156940Y-169492650D03*
%TD*%
D17*
%TO.P,M2,A1,A1*%
%TO.N,/M2_A1*%
X246336340Y-170714591D03*
%TO.P,M2,A2,A2*%
%TO.N,/M2_A2*%
X246336340Y-178474291D03*
%TO.P,M2,A3,A3*%
%TO.N,/M2_A3*%
X223476340Y-178474291D03*
%TO.P,M2,A4,A4*%
%TO.N,/M2_A4*%
X223476340Y-170714591D03*
%TO.P,M2,B1,B1*%
%TO.N,/M2_B1*%
X223476340Y-209472450D03*
%TO.P,M2,B2,B2*%
%TO.N,/M2_B2*%
X223476340Y-201712750D03*
%TO.P,M2,B3,B3*%
%TO.N,/M2_B3*%
X246336340Y-201712750D03*
%TO.P,M2,B4,B4*%
%TO.N,/M2_B4*%
X246336340Y-209472450D03*
%TD*%
%TO.P,M4,A1,A1*%
%TO.N,/M4_A1*%
X446336340Y-170714591D03*
%TO.P,M4,A2,A2*%
%TO.N,/M4_A2*%
X446336340Y-178474291D03*
%TO.P,M4,A3,A3*%
%TO.N,/M4_A3*%
X423476340Y-178474291D03*
%TO.P,M4,A4,A4*%
%TO.N,/M4_A4*%
X423476340Y-170714591D03*
%TO.P,M4,B1,B1*%
%TO.N,/M4_B1*%
X423476340Y-209472450D03*
%TO.P,M4,B2,B2*%
%TO.N,/M4_B2*%
X423476340Y-201712750D03*
%TO.P,M4,B3,B3*%
%TO.N,/M4_B3*%
X446336340Y-201712750D03*
%TO.P,M4,B4,B4*%
%TO.N,/M4_B4*%
X446336340Y-209472450D03*
%TD*%
D14*
%TO.P,C15,1*%
%TO.N,+5V*%
X301906940Y-170092650D03*
%TO.P,C15,2*%
%TO.N,GND*%
X301906940Y-168192650D03*
%TD*%
D15*
%TO.P,R25,1*%
%TO.N,/UART_B*%
X280906940Y-205092650D03*
%TO.P,R25,2*%
%TO.N,/U1*%
X280906940Y-206917650D03*
%TD*%
D20*
%TO.P,J5,1,Pin_1*%
%TO.N,+5V*%
X195066940Y-203587650D03*
%TO.P,J5,2,Pin_2*%
%TO.N,GND*%
X192526940Y-200287650D03*
%TO.P,J5,3,Pin_3*%
%TO.N,unconnected-(J5-Pin_3-Pad3)*%
X189986940Y-203587650D03*
%TO.P,J5,4,Pin_4*%
%TO.N,/U1*%
X187446940Y-200287650D03*
%TO.P,J5,5,Pin_5*%
%TO.N,/U2*%
X184906940Y-203587650D03*
%TO.P,J5,6,Pin_6*%
%TO.N,/IC1*%
X182366940Y-200287650D03*
%TO.P,J5,7,Pin_7*%
%TO.N,/IC2*%
X179826940Y-203587650D03*
%TO.P,J5,8,Pin_8*%
%TO.N,/IC3*%
X177286940Y-200287650D03*
%TO.P,J5,9,Pin_9*%
%TO.N,unconnected-(J5-Pin_9-Pad9)*%
X174746940Y-203587650D03*
%TD*%
D21*
%TO.P,Y1,1,1*%
%TO.N,Net-(U1-XTAL_N)*%
X282406940Y-191392650D03*
%TO.P,Y1,2,2*%
%TO.N,GND*%
X282406940Y-193592650D03*
%TO.P,Y1,3,3*%
%TO.N,Net-(C1-Pad1)*%
X280706940Y-193592650D03*
%TO.P,Y1,4,4*%
%TO.N,GND*%
X280706940Y-191392650D03*
%TD*%
D11*
%TO.P,J10,1,Pin_1*%
%TO.N,/GPIO3*%
X399156940Y-137342650D03*
D12*
%TO.P,J10,2,Pin_2*%
%TO.N,Net-(J10-Pin_2)*%
X399156940Y-139882650D03*
%TO.P,J10,3,Pin_3*%
%TO.N,GND*%
X399156940Y-142422650D03*
%TD*%
D15*
%TO.P,R2,1*%
%TO.N,/RST*%
X287156940Y-161092650D03*
%TO.P,R2,2*%
%TO.N,+3.3V*%
X287156940Y-162917650D03*
%TD*%
D13*
%TO.P,C5,1*%
%TO.N,+3.3V*%
X270806940Y-192342650D03*
%TO.P,C5,2*%
%TO.N,GND*%
X268906940Y-192342650D03*
%TD*%
D22*
%TO.P,J3,1,Pin_1*%
%TO.N,/U1*%
X99406940Y-172972650D03*
%TO.P,J3,2,Pin_2*%
%TO.N,+5V*%
X99406940Y-175512650D03*
%TO.P,J3,3,Pin_3*%
%TO.N,/IC1*%
X99406940Y-178052650D03*
%TO.P,J3,4,Pin_4*%
%TO.N,/IC2*%
X99406940Y-180592650D03*
%TO.P,J3,5,Pin_5*%
%TO.N,/IC3*%
X99406940Y-183132650D03*
%TO.P,J3,6,Pin_6*%
%TO.N,GND*%
X99406940Y-185672650D03*
%TO.P,J3,7,Pin_7*%
%TO.N,/U2*%
X99406940Y-188212650D03*
%TD*%
D16*
%TO.P,R4,1*%
%TO.N,Net-(J13-Pin_2)*%
X365906940Y-143092650D03*
%TO.P,R4,2*%
%TO.N,+3.3V*%
X364081940Y-143092650D03*
%TD*%
D14*
%TO.P,C3,1*%
%TO.N,+3.3V*%
X283656940Y-174492650D03*
%TO.P,C3,2*%
%TO.N,GND*%
X283656940Y-172592650D03*
%TD*%
D13*
%TO.P,C8,1*%
%TO.N,+3.3V*%
X278806940Y-184842650D03*
%TO.P,C8,2*%
%TO.N,GND*%
X276906940Y-184842650D03*
%TD*%
%TO.P,C7,1*%
%TO.N,+3.3V*%
X270806940Y-189342650D03*
%TO.P,C7,2*%
%TO.N,GND*%
X268906940Y-189342650D03*
%TD*%
%TO.P,C9,1*%
%TO.N,+3.3V*%
X277306940Y-187092650D03*
%TO.P,C9,2*%
%TO.N,GND*%
X275406940Y-187092650D03*
%TD*%
D16*
%TO.P,R3,1*%
%TO.N,Net-(J13-Pin_2)*%
X365906940Y-139092650D03*
%TO.P,R3,2*%
%TO.N,+5V*%
X364081940Y-139092650D03*
%TD*%
D23*
%TO.P,U2,1,GND*%
%TO.N,GND*%
X310456940Y-171492650D03*
%TO.P,U2,2,VO*%
%TO.N,+3.3V*%
X308156940Y-171492650D03*
D24*
X308156940Y-165192650D03*
D23*
%TO.P,U2,3,VI*%
%TO.N,+5V*%
X305856940Y-171492650D03*
%TD*%
D15*
%TO.P,R22,1*%
%TO.N,/UART_A*%
X293656940Y-205092650D03*
%TO.P,R22,2*%
%TO.N,/U1*%
X293656940Y-206917650D03*
%TD*%
%TO.P,R23,1*%
%TO.N,/UART_B*%
X285156940Y-205092650D03*
%TO.P,R23,2*%
%TO.N,/U2*%
X285156940Y-206917650D03*
%TD*%
D25*
%TO.P,L1,1*%
%TO.N,+3.3V*%
X272906940Y-184467650D03*
%TO.P,L1,2*%
%TO.N,Net-(C4-Pad1)*%
X272906940Y-182342650D03*
%TD*%
D26*
%TO.P,C10,1*%
%TO.N,+3.3V*%
X291406940Y-176092650D03*
%TO.P,C10,2*%
%TO.N,GND*%
X293306940Y-176092650D03*
%TD*%
D27*
%TO.P,SW2,1,1*%
%TO.N,GND*%
X293156940Y-155217650D03*
%TO.P,SW2,2,2*%
X287156940Y-155217650D03*
%TO.P,SW2,3,K*%
%TO.N,/RST*%
X293156940Y-158967650D03*
%TO.P,SW2,4,A*%
X287156940Y-158967650D03*
%TD*%
D13*
%TO.P,C12,1*%
%TO.N,+3.3V*%
X289556940Y-193342650D03*
%TO.P,C12,2*%
%TO.N,GND*%
X287656940Y-193342650D03*
%TD*%
D27*
%TO.P,SW1,1,1*%
%TO.N,GND*%
X282656940Y-155342650D03*
%TO.P,SW1,2,2*%
X276656940Y-155342650D03*
%TO.P,SW1,3,K*%
%TO.N,/BOOT*%
X282656940Y-159092650D03*
%TO.P,SW1,4,A*%
X276656940Y-159092650D03*
%TD*%
D17*
%TO.P,M1,A1,A1*%
%TO.N,/M1_A1*%
X146336340Y-170714591D03*
%TO.P,M1,A2,A2*%
%TO.N,/M1_A2*%
X146336340Y-178474291D03*
%TO.P,M1,A3,A3*%
%TO.N,/M1_A3*%
X123476340Y-178474291D03*
%TO.P,M1,A4,A4*%
%TO.N,/M1_A4*%
X123476340Y-170714591D03*
%TO.P,M1,B1,B1*%
%TO.N,/M1_B1*%
X123476340Y-209472450D03*
%TO.P,M1,B2,B2*%
%TO.N,/M1_B2*%
X123476340Y-201712750D03*
%TO.P,M1,B3,B3*%
%TO.N,/M1_B3*%
X146336340Y-201712750D03*
%TO.P,M1,B4,B4*%
%TO.N,/M1_B4*%
X146336340Y-209472450D03*
%TD*%
D19*
%TO.P,J2,1,Pin_1*%
%TO.N,/U1*%
X277286940Y-145092650D03*
%TO.P,J2,2,Pin_2*%
%TO.N,+5V*%
X279826940Y-145092650D03*
%TO.P,J2,3,Pin_3*%
%TO.N,/IC1*%
X282366940Y-145092650D03*
%TO.P,J2,4,Pin_4*%
%TO.N,/IC2*%
X284906940Y-145092650D03*
%TO.P,J2,5,Pin_5*%
%TO.N,/IC3*%
X287446940Y-145092650D03*
%TO.P,J2,6,Pin_6*%
%TO.N,GND*%
X289986940Y-145092650D03*
%TO.P,J2,7,Pin_7*%
%TO.N,/U2*%
X292526940Y-145092650D03*
%TD*%
D15*
%TO.P,R1,1*%
%TO.N,/BOOT*%
X276656940Y-161092650D03*
%TO.P,R1,2*%
%TO.N,+3.3V*%
X276656940Y-162917650D03*
%TD*%
D16*
%TO.P,R7,1*%
%TO.N,Net-(J11-Pin_2)*%
X379906940Y-139092650D03*
%TO.P,R7,2*%
%TO.N,+5V*%
X378081940Y-139092650D03*
%TD*%
D20*
%TO.P,J6,1,Pin_1*%
%TO.N,unconnected-(J6-Pin_1-Pad1)*%
X195066940Y-218837650D03*
%TO.P,J6,2,Pin_2*%
%TO.N,unconnected-(J6-Pin_2-Pad2)*%
X192526940Y-215537650D03*
%TO.P,J6,3,Pin_3*%
%TO.N,unconnected-(J6-Pin_3-Pad3)*%
X189986940Y-218837650D03*
%TO.P,J6,4,Pin_4*%
%TO.N,unconnected-(J6-Pin_4-Pad4)*%
X187446940Y-215537650D03*
%TO.P,J6,5,Pin_5*%
%TO.N,unconnected-(J6-Pin_5-Pad5)*%
X184906940Y-218837650D03*
%TO.P,J6,6,Pin_6*%
%TO.N,unconnected-(J6-Pin_6-Pad6)*%
X182366940Y-215537650D03*
%TO.P,J6,7,Pin_7*%
%TO.N,unconnected-(J6-Pin_7-Pad7)*%
X179826940Y-218837650D03*
%TO.P,J6,8,Pin_8*%
%TO.N,unconnected-(J6-Pin_8-Pad8)*%
X177286940Y-215537650D03*
%TO.P,J6,9,Pin_9*%
%TO.N,unconnected-(J6-Pin_9-Pad9)*%
X174746940Y-218837650D03*
%TD*%
D11*
%TO.P,J13,1,Pin_1*%
%TO.N,/BOOT*%
X370656940Y-137342650D03*
D12*
%TO.P,J13,2,Pin_2*%
%TO.N,Net-(J13-Pin_2)*%
X370656940Y-139882650D03*
%TO.P,J13,3,Pin_3*%
%TO.N,GND*%
X370656940Y-142422650D03*
%TD*%
D22*
%TO.P,J1,1,Pin_1*%
%TO.N,/U1*%
X470406940Y-172972650D03*
%TO.P,J1,2,Pin_2*%
%TO.N,+5V*%
X470406940Y-175512650D03*
%TO.P,J1,3,Pin_3*%
%TO.N,/IC1*%
X470406940Y-178052650D03*
%TO.P,J1,4,Pin_4*%
%TO.N,/IC2*%
X470406940Y-180592650D03*
%TO.P,J1,5,Pin_5*%
%TO.N,/IC3*%
X470406940Y-183132650D03*
%TO.P,J1,6,Pin_6*%
%TO.N,GND*%
X470406940Y-185672650D03*
%TO.P,J1,7,Pin_7*%
%TO.N,/U2*%
X470406940Y-188212650D03*
%TD*%
D16*
%TO.P,R6,1*%
%TO.N,Net-(J10-Pin_2)*%
X393981940Y-143092650D03*
%TO.P,R6,2*%
%TO.N,+3.3V*%
X392156940Y-143092650D03*
%TD*%
D26*
%TO.P,C2,1*%
%TO.N,GND*%
X280506940Y-188092650D03*
%TO.P,C2,2*%
%TO.N,Net-(U1-XTAL_N)*%
X282406940Y-188092650D03*
%TD*%
D28*
%TO.P,U1,1,LNA_IN*%
%TO.N,unconnected-(U1-LNA_IN-Pad1)*%
X281456940Y-183192650D03*
%TO.P,U1,2,VDD3P3*%
%TO.N,Net-(C4-Pad1)*%
X281456940Y-182792650D03*
%TO.P,U1,3,VDD3P3*%
X281456940Y-182392650D03*
%TO.P,U1,4,CHIP_PU*%
%TO.N,/RST*%
X281456940Y-181992650D03*
%TO.P,U1,5,GPIO0*%
%TO.N,/BOOT*%
X281456940Y-181592650D03*
%TO.P,U1,6,GPIO1*%
%TO.N,/M2_B2*%
X281456940Y-181192650D03*
%TO.P,U1,7,GPIO2*%
%TO.N,/M2_B3*%
X281456940Y-180792650D03*
%TO.P,U1,8,GPIO3*%
%TO.N,/GPIO3*%
X281456940Y-180392650D03*
%TO.P,U1,9,GPIO4*%
%TO.N,/M1_B1*%
X281456940Y-179992650D03*
%TO.P,U1,10,GPIO5*%
%TO.N,/M1_B4*%
X281456940Y-179592650D03*
%TO.P,U1,11,GPIO6*%
%TO.N,/M1_B2*%
X281456940Y-179192650D03*
%TO.P,U1,12,GPIO7*%
%TO.N,/M1_B3*%
X281456940Y-178792650D03*
%TO.P,U1,13,GPIO8*%
%TO.N,/M1_A3*%
X281456940Y-178392650D03*
%TO.P,U1,14,GPIO9*%
%TO.N,/M1_A2*%
X281456940Y-177992650D03*
D29*
%TO.P,U1,15,GPIO10*%
%TO.N,/M1_A1*%
X282306940Y-177142650D03*
%TO.P,U1,16,GPIO11*%
%TO.N,/M1_A4*%
X282706940Y-177142650D03*
%TO.P,U1,17,GPIO12*%
%TO.N,/M2_A3*%
X283106940Y-177142650D03*
%TO.P,U1,18,GPIO13*%
%TO.N,/M2_A2*%
X283506940Y-177142650D03*
%TO.P,U1,19,GPIO14*%
%TO.N,/M2_A1*%
X283906940Y-177142650D03*
%TO.P,U1,20,VDD3P3_RTC*%
%TO.N,+3.3V*%
X284306940Y-177142650D03*
%TO.P,U1,21,XTAL_32K_P*%
%TO.N,/M2_A4*%
X284706940Y-177142650D03*
%TO.P,U1,22,XTAL_32K_N*%
%TO.N,/M3_A1*%
X285106940Y-177142650D03*
%TO.P,U1,23,GPIO17*%
%TO.N,/M3_A4*%
X285506940Y-177142650D03*
%TO.P,U1,24,GPIO18*%
%TO.N,/M3_A3*%
X285906940Y-177142650D03*
%TO.P,U1,25,GPIO19/USB_D-*%
%TO.N,/USB_N*%
X286306940Y-177142650D03*
%TO.P,U1,26,GPIO20/USB_D+*%
%TO.N,/USB_P*%
X286706940Y-177142650D03*
%TO.P,U1,27,GPIO21*%
%TO.N,/M3_A2*%
X287106940Y-177142650D03*
%TO.P,U1,28,SPICS1*%
%TO.N,/CS1*%
X287506940Y-177142650D03*
D28*
%TO.P,U1,29,VDD_SPI*%
%TO.N,+3.3V*%
X288356940Y-177992650D03*
%TO.P,U1,30,SPIHD*%
%TO.N,unconnected-(U1-SPIHD-Pad30)*%
X288356940Y-178392650D03*
%TO.P,U1,31,SPIWP*%
%TO.N,unconnected-(U1-SPIWP-Pad31)*%
X288356940Y-178792650D03*
%TO.P,U1,32,SPICS0*%
%TO.N,unconnected-(U1-SPICS0-Pad32)*%
X288356940Y-179192650D03*
%TO.P,U1,33,SPICLK*%
%TO.N,unconnected-(U1-SPICLK-Pad33)*%
X288356940Y-179592650D03*
%TO.P,U1,34,SPIQ*%
%TO.N,unconnected-(U1-SPIQ-Pad34)*%
X288356940Y-179992650D03*
%TO.P,U1,35,SPID*%
%TO.N,unconnected-(U1-SPID-Pad35)*%
X288356940Y-180392650D03*
%TO.P,U1,36,SPICLK_N*%
%TO.N,/M4_A4*%
X288356940Y-180792650D03*
%TO.P,U1,37,SPICLK_P*%
%TO.N,/M4_A1*%
X288356940Y-181192650D03*
%TO.P,U1,38,GPIO33*%
%TO.N,/M4_A3*%
X288356940Y-181592650D03*
%TO.P,U1,39,GPIO34*%
%TO.N,/M4_A2*%
X288356940Y-181992650D03*
%TO.P,U1,40,GPIO35*%
%TO.N,/M4_B2*%
X288356940Y-182392650D03*
%TO.P,U1,41,GPIO36*%
%TO.N,/M4_B3*%
X288356940Y-182792650D03*
%TO.P,U1,42,GPIO37*%
%TO.N,/M4_B1*%
X288356940Y-183192650D03*
D29*
%TO.P,U1,43,GPIO38*%
%TO.N,/M4_B4*%
X287506940Y-184042650D03*
%TO.P,U1,44,MTCK*%
%TO.N,/M3_B2*%
X287106940Y-184042650D03*
%TO.P,U1,45,MTDO*%
%TO.N,/M3_B3*%
X286706940Y-184042650D03*
%TO.P,U1,46,VDD3P3_CPU*%
%TO.N,+3.3V*%
X286306940Y-184042650D03*
%TO.P,U1,47,MTDI*%
%TO.N,/M3_B1*%
X285906940Y-184042650D03*
%TO.P,U1,48,MTMS*%
%TO.N,/M3_B4*%
X285506940Y-184042650D03*
%TO.P,U1,49,U0TXD*%
%TO.N,/UART_A*%
X285106940Y-184042650D03*
%TO.P,U1,50,U0RXD*%
%TO.N,/UART_B*%
X284706940Y-184042650D03*
%TO.P,U1,51,GPIO45*%
%TO.N,/M2_B1*%
X284306940Y-184042650D03*
%TO.P,U1,52,GPIO46*%
%TO.N,/M2_B4*%
X283906940Y-184042650D03*
%TO.P,U1,53,XTAL_N*%
%TO.N,Net-(U1-XTAL_N)*%
X283506940Y-184042650D03*
%TO.P,U1,54,XTAL_P*%
%TO.N,Net-(U1-XTAL_P)*%
X283106940Y-184042650D03*
%TO.P,U1,55,VDDA*%
%TO.N,+3.3V*%
X282706940Y-184042650D03*
%TO.P,U1,56,VDDA*%
X282306940Y-184042650D03*
D30*
%TO.P,U1,57,GND*%
%TO.N,GND*%
X284906940Y-180592650D03*
%TD*%
D15*
%TO.P,R9,1*%
%TO.N,Net-(U1-XTAL_P)*%
X274406940Y-191592650D03*
%TO.P,R9,2*%
%TO.N,Net-(C1-Pad1)*%
X274406940Y-193417650D03*
%TD*%
D16*
%TO.P,R5,1*%
%TO.N,Net-(J10-Pin_2)*%
X393981940Y-139092650D03*
%TO.P,R5,2*%
%TO.N,+5V*%
X392156940Y-139092650D03*
%TD*%
D31*
%TO.N,GND*%
X194656940Y-200342650D03*
D32*
X274906940Y-188592650D03*
X288406940Y-194842650D03*
D31*
X284906940Y-155217650D03*
X315156940Y-171592650D03*
X313656940Y-171492650D03*
D32*
X283656940Y-171342650D03*
D33*
X280706940Y-189592650D03*
D31*
X301906940Y-165092650D03*
X287156940Y-142092650D03*
X101406940Y-185672650D03*
D32*
X282406940Y-183092650D03*
X294656940Y-176342650D03*
X287406940Y-178092650D03*
D31*
X289986940Y-219842650D03*
D32*
X268906940Y-193842650D03*
D31*
X474906940Y-185672650D03*
%TO.N,+5V*%
X198156940Y-223592650D03*
X198156940Y-220092650D03*
D32*
%TO.N,+3.3V*%
X295656940Y-177342650D03*
X294406940Y-163092650D03*
X294156940Y-195342650D03*
X283902517Y-175503662D03*
X297156940Y-163342650D03*
X283156940Y-196842650D03*
X289406940Y-177992650D03*
X298656940Y-174342650D03*
X290406940Y-196592650D03*
D31*
%TO.N,/IC2*%
X178156940Y-226342650D03*
X178156940Y-220592650D03*
%TO.N,/IC1*%
X181156940Y-220592650D03*
X181156940Y-225092650D03*
%TO.N,/IC3*%
X176156940Y-227592650D03*
X176156940Y-220592650D03*
%TO.N,/U2*%
X186656940Y-220592650D03*
X186656940Y-228842650D03*
X292526940Y-220842650D03*
X287656940Y-208342650D03*
D32*
%TO.N,/USB_N*%
X286906940Y-174842650D03*
%TO.N,/USB_P*%
X287906940Y-174842650D03*
%TO.N,/RST*%
X280128307Y-182559927D03*
X276406940Y-172842650D03*
%TO.N,/BOOT*%
X274906940Y-172842650D03*
X293156940Y-149592650D03*
X362656940Y-137342650D03*
X280017867Y-181754124D03*
X287906940Y-152592650D03*
%TO.N,/CS1*%
X288906940Y-175842650D03*
X382906940Y-149092650D03*
X290406940Y-178342650D03*
%TO.N,/GPIO3*%
X294406940Y-170342650D03*
X295906940Y-172842650D03*
X280406940Y-180342650D03*
X277906940Y-172842650D03*
%TD*%
D34*
%TO.N,GND*%
X192526940Y-200282650D02*
X194596940Y-200282650D01*
D35*
X283656940Y-172592650D02*
X283656940Y-171342650D01*
X284906940Y-180592650D02*
X282406940Y-183092650D01*
X268906940Y-189342650D02*
X268906940Y-186592650D01*
X280706940Y-191392650D02*
X280706940Y-189592650D01*
X277906940Y-191592650D02*
X278106940Y-191392650D01*
D34*
X289986940Y-145092650D02*
X289986940Y-144922650D01*
X289986940Y-216092650D02*
X289986940Y-219842650D01*
D35*
X284906940Y-155217650D02*
X282781940Y-155217650D01*
X289986940Y-145092650D02*
X289986940Y-145762650D01*
D34*
X315156940Y-171592650D02*
X315156940Y-169492650D01*
X301906940Y-168192650D02*
X301906940Y-165092650D01*
D35*
X287656940Y-193342650D02*
X288406940Y-194092650D01*
X284906940Y-180592650D02*
X287406940Y-178092650D01*
X276906940Y-185592650D02*
X275406940Y-187092650D01*
X276906940Y-184842650D02*
X276906940Y-185592650D01*
X282656940Y-155342650D02*
X276656940Y-155342650D01*
X282406940Y-193592650D02*
X282406940Y-193092650D01*
X277006940Y-184742650D02*
X276906940Y-184842650D01*
X288406940Y-194092650D02*
X288406940Y-194842650D01*
X278106940Y-191392650D02*
X280706940Y-191392650D01*
X294406940Y-176092650D02*
X294656940Y-176342650D01*
D34*
X470406940Y-185672650D02*
X474906940Y-185672650D01*
D35*
X275406940Y-188092650D02*
X274906940Y-188592650D01*
X268906940Y-192342650D02*
X268906940Y-193842650D01*
D34*
X99406940Y-185672650D02*
X101406940Y-185672650D01*
D35*
X268906940Y-192342650D02*
X268906940Y-189342650D01*
X287656940Y-191342650D02*
X287656940Y-193342650D01*
X293306940Y-176092650D02*
X294406940Y-176092650D01*
X282406940Y-193092650D02*
X280706940Y-191392650D01*
X277006940Y-182592650D02*
X277006940Y-184742650D01*
D34*
X289986940Y-144922650D02*
X287156940Y-142092650D01*
X301906940Y-168192650D02*
X299156940Y-168192650D01*
D35*
X275406940Y-187092650D02*
X275406940Y-188092650D01*
X286906940Y-190592650D02*
X287656940Y-191342650D01*
D34*
X194596940Y-200282650D02*
X194656940Y-200342650D01*
D35*
X287156940Y-155217650D02*
X284906940Y-155217650D01*
X280706940Y-188292650D02*
X280506940Y-188092650D01*
D34*
X310456940Y-171492650D02*
X313656940Y-171492650D01*
D35*
X282781940Y-155217650D02*
X282656940Y-155342650D01*
X277656940Y-191592650D02*
X277906940Y-191592650D01*
X280706940Y-189592650D02*
X280706940Y-188292650D01*
X293156940Y-155217650D02*
X287156940Y-155217650D01*
D34*
%TO.N,+5V*%
X96156940Y-174592650D02*
X97076940Y-175512650D01*
X386156940Y-133092650D02*
X392156940Y-139092650D01*
X366906940Y-133092650D02*
X373156940Y-133092650D01*
X373156940Y-133092650D02*
X386156940Y-133092650D01*
X295906940Y-154092650D02*
X295906940Y-171492650D01*
X279826940Y-222172650D02*
X278406940Y-223592650D01*
X291306940Y-171492650D02*
X288656940Y-168842650D01*
X125906940Y-142842650D02*
X96156940Y-172592650D01*
X310906940Y-139092650D02*
X364081940Y-139092650D01*
X298156940Y-223342650D02*
X298156940Y-213842650D01*
X467236940Y-175512650D02*
X465406940Y-177342650D01*
X295906940Y-154092650D02*
X310906940Y-139092650D01*
X299156940Y-171492650D02*
X299156940Y-170092650D01*
X285076940Y-210842650D02*
X279826940Y-216092650D01*
X108906940Y-182592650D02*
X101826940Y-175512650D01*
X278406940Y-223592650D02*
X115656940Y-223592650D01*
X96156940Y-172592650D02*
X96156940Y-174592650D01*
X464656940Y-224342650D02*
X299156940Y-224342650D01*
X198156940Y-220092650D02*
X198156940Y-206682650D01*
X465406940Y-177342650D02*
X465406940Y-223592650D01*
X295156940Y-210842650D02*
X285076940Y-210842650D01*
X301906940Y-171492650D02*
X299156940Y-171492650D01*
X285656940Y-151342650D02*
X293156940Y-151342650D01*
X279826940Y-145092650D02*
X279826940Y-145512650D01*
X298156940Y-213842650D02*
X295156940Y-210842650D01*
X364081940Y-139092650D02*
X364081940Y-135917650D01*
X97076940Y-175512650D02*
X99406940Y-175512650D01*
X108906940Y-216842650D02*
X108906940Y-182592650D01*
X198156940Y-206682650D02*
X195066940Y-203592650D01*
X373156940Y-133092650D02*
X378081940Y-138017650D01*
X101826940Y-175512650D02*
X99406940Y-175512650D01*
X470406940Y-175512650D02*
X467236940Y-175512650D01*
X364081940Y-135917650D02*
X366906940Y-133092650D01*
X299156940Y-171492650D02*
X295906940Y-171492650D01*
X279826940Y-145512650D02*
X285656940Y-151342650D01*
X295906940Y-171492650D02*
X291306940Y-171492650D01*
X378081940Y-138017650D02*
X378081940Y-139092650D01*
X279826940Y-145092650D02*
X279826940Y-144012650D01*
X278656940Y-142842650D02*
X125906940Y-142842650D01*
X279826940Y-216092650D02*
X279826940Y-222172650D01*
X115656940Y-223592650D02*
X108906940Y-216842650D01*
X279826940Y-144012650D02*
X278656940Y-142842650D01*
X305856940Y-171492650D02*
X301906940Y-171492650D01*
X293156940Y-151342650D02*
X295906940Y-154092650D01*
X301906940Y-171492650D02*
X301906940Y-170092650D01*
X299156940Y-224342650D02*
X298156940Y-223342650D01*
X465406940Y-223592650D02*
X464656940Y-224342650D01*
%TO.N,+3.3V*%
X315156940Y-167592650D02*
X310556940Y-167592650D01*
D35*
X275056940Y-189342650D02*
X277306940Y-187092650D01*
D36*
X376931940Y-144242650D02*
X391006940Y-144242650D01*
D35*
X282406940Y-184842650D02*
X282156940Y-184842650D01*
D37*
X307906940Y-163342650D02*
X308156940Y-163592650D01*
D36*
X364081940Y-143092650D02*
X339656940Y-143092650D01*
D35*
X278806940Y-184842650D02*
X282156940Y-184842650D01*
D37*
X308156940Y-163592650D02*
X308156940Y-165192650D01*
D35*
X282706940Y-184542650D02*
X282406940Y-184842650D01*
X289506940Y-177992650D02*
X291406940Y-176092650D01*
X284306940Y-175908085D02*
X284306940Y-176092650D01*
D36*
X364081940Y-143092650D02*
X365231940Y-144242650D01*
D35*
X275306940Y-196842650D02*
X283156940Y-196842650D01*
D36*
X365231940Y-144242650D02*
X376931940Y-144242650D01*
X391006940Y-144242650D02*
X392156940Y-143092650D01*
D35*
X288806940Y-190592650D02*
X286306940Y-188092650D01*
X272906940Y-184492650D02*
X270806940Y-186592650D01*
X288356940Y-177992650D02*
X289406940Y-177992650D01*
X282306940Y-184692650D02*
X282306940Y-184042650D01*
X289556940Y-191342650D02*
X288806940Y-190592650D01*
X270806940Y-186592650D02*
X270806940Y-189342650D01*
X270806940Y-189342650D02*
X270806940Y-192342650D01*
X270806940Y-189342650D02*
X274906940Y-189342650D01*
X283902517Y-175503662D02*
X284306940Y-175908085D01*
D37*
X294231940Y-162917650D02*
X294406940Y-163092650D01*
D35*
X277306940Y-187092650D02*
X277306940Y-186342650D01*
X284306940Y-176092650D02*
X284306940Y-177142650D01*
D37*
X292656940Y-177342650D02*
X295656940Y-177342650D01*
D35*
X272906940Y-184467650D02*
X272906940Y-184492650D01*
X289406940Y-177992650D02*
X289506940Y-177992650D01*
X289556940Y-193342650D02*
X289556940Y-191342650D01*
D37*
X299406940Y-173592650D02*
X308156940Y-173592650D01*
D35*
X282156940Y-184842650D02*
X282306940Y-184692650D01*
D37*
X287156940Y-162917650D02*
X276656940Y-162917650D01*
X297156940Y-163342650D02*
X307906940Y-163342650D01*
D35*
X289556940Y-193342650D02*
X292156940Y-193342650D01*
D37*
X291406940Y-176092650D02*
X292656940Y-177342650D01*
D35*
X283656940Y-174492650D02*
X284306940Y-175142650D01*
X291656940Y-195342650D02*
X294156940Y-195342650D01*
D36*
X376931940Y-144242650D02*
X378081940Y-143092650D01*
D37*
X308156940Y-173592650D02*
X308156940Y-171492650D01*
X287156940Y-162917650D02*
X294231940Y-162917650D01*
X298656940Y-174342650D02*
X299406940Y-173592650D01*
D35*
X292156940Y-193342650D02*
X294156940Y-195342650D01*
D36*
X339656940Y-143092650D02*
X315156940Y-167592650D01*
D35*
X270806940Y-192342650D02*
X275306940Y-196842650D01*
X284306940Y-175142650D02*
X284306940Y-176092650D01*
X286306940Y-188092650D02*
X286306940Y-184042650D01*
X290406940Y-196592650D02*
X291656940Y-195342650D01*
X274906940Y-189342650D02*
X275056940Y-189342650D01*
X282706940Y-184042650D02*
X282706940Y-184542650D01*
X277306940Y-186342650D02*
X278806940Y-184842650D01*
%TO.N,Net-(U1-XTAL_N)*%
X283506940Y-186742650D02*
X283506940Y-184042650D01*
X282406940Y-187842650D02*
X283506940Y-186742650D01*
X282406940Y-191392650D02*
X282406940Y-187842650D01*
%TO.N,Net-(C4-Pad1)*%
X280686907Y-182592650D02*
X280686907Y-183062683D01*
X280886907Y-182392650D02*
X280686907Y-182592650D01*
X281456940Y-182792650D02*
X280956940Y-182792650D01*
X280631063Y-183118527D02*
X279432817Y-183118527D01*
X276158140Y-181591450D02*
X276156940Y-181592650D01*
X280686907Y-183062683D02*
X280631063Y-183118527D01*
X272906940Y-181842650D02*
X272906940Y-182342650D01*
X278906940Y-182592650D02*
X277905740Y-181591450D01*
X277905740Y-181591450D02*
X276158140Y-181591450D01*
X280956940Y-182792650D02*
X280631063Y-183118527D01*
X281456940Y-182392650D02*
X280886907Y-182392650D01*
X273156940Y-181592650D02*
X272906940Y-181842650D01*
X279432817Y-183118527D02*
X278906940Y-182592650D01*
X276156940Y-181592650D02*
X273156940Y-181592650D01*
%TO.N,Net-(U1-XTAL_P)*%
X274406940Y-191592650D02*
X279156940Y-186842650D01*
X279156940Y-186842650D02*
X282406940Y-186842650D01*
X283106940Y-186142650D02*
X283106940Y-184042650D01*
X282406940Y-186842650D02*
X283106940Y-186142650D01*
D36*
%TO.N,Net-(J10-Pin_2)*%
X393981940Y-139092650D02*
X398366940Y-139092650D01*
X393981940Y-143092650D02*
X393981940Y-139092650D01*
X398366940Y-139092650D02*
X399156940Y-139882650D01*
%TO.N,/IC2*%
X179826940Y-215922650D02*
X178656940Y-217092650D01*
X94652940Y-175838650D02*
X99406940Y-180592650D01*
X125529962Y-141092650D02*
X94652940Y-171969672D01*
X280656940Y-226342650D02*
X178156940Y-226342650D01*
X284906940Y-145092650D02*
X280906940Y-141092650D01*
X295906940Y-224592650D02*
X295906940Y-215092650D01*
X178656940Y-217092650D02*
X178156940Y-217592650D01*
X178156940Y-217592650D02*
X178156940Y-220592650D01*
X467656940Y-183342650D02*
X467656940Y-225342650D01*
X293906940Y-213092650D02*
X287406940Y-213092650D01*
X113906940Y-226342650D02*
X106156940Y-218592650D01*
X287406940Y-213092650D02*
X284906940Y-215592650D01*
X94652940Y-171969672D02*
X94652940Y-175838650D01*
X280906940Y-141092650D02*
X125529962Y-141092650D01*
X470406940Y-180592650D02*
X467656940Y-183342650D01*
X101656940Y-180592650D02*
X99406940Y-180592650D01*
X284906940Y-222092650D02*
X280656940Y-226342650D01*
X467656940Y-225342650D02*
X466156940Y-226842650D01*
X179826940Y-203592650D02*
X179826940Y-215922650D01*
X298156940Y-226842650D02*
X295906940Y-224592650D01*
X466156940Y-226842650D02*
X298156940Y-226842650D01*
X106156940Y-218592650D02*
X106156940Y-185092650D01*
X106156940Y-185092650D02*
X101656940Y-180592650D01*
X284906940Y-215592650D02*
X284906940Y-216092650D01*
X284906940Y-216092650D02*
X284906940Y-222092650D01*
X178156940Y-226342650D02*
X113906940Y-226342650D01*
X295906940Y-215092650D02*
X293906940Y-213092650D01*
%TO.N,/IC1*%
X182366940Y-200282650D02*
X182366940Y-212882650D01*
X296906940Y-223842650D02*
X298906940Y-225842650D01*
X466656940Y-224842650D02*
X466656940Y-181802650D01*
X181156940Y-225092650D02*
X279156940Y-225092650D01*
X100866940Y-178052650D02*
X107156940Y-184342650D01*
X282366940Y-216092650D02*
X282366940Y-215882650D01*
X95279940Y-172229384D02*
X95279940Y-175215650D01*
X296906940Y-214342650D02*
X296906940Y-223842650D01*
X282366940Y-215882650D02*
X286156940Y-212092650D01*
X99406940Y-178052650D02*
X100866940Y-178052650D01*
X465656940Y-225842650D02*
X466656940Y-224842650D01*
X182366940Y-212882650D02*
X181156940Y-214092650D01*
X181156940Y-214092650D02*
X181156940Y-220592650D01*
X107156940Y-217342650D02*
X114906940Y-225092650D01*
X95279940Y-175215650D02*
X98116940Y-178052650D01*
X286156940Y-212092650D02*
X294656940Y-212092650D01*
X466656940Y-181802650D02*
X470406940Y-178052650D01*
X282366940Y-221882650D02*
X282366940Y-216092650D01*
X279116940Y-141842650D02*
X125666674Y-141842650D01*
X282366940Y-145092650D02*
X279116940Y-141842650D01*
X298906940Y-225842650D02*
X465656940Y-225842650D01*
X114906940Y-225092650D02*
X181156940Y-225092650D01*
X294656940Y-212092650D02*
X296906940Y-214342650D01*
X107156940Y-184342650D02*
X107156940Y-217342650D01*
X279156940Y-225092650D02*
X282366940Y-221882650D01*
X98116940Y-178052650D02*
X99406940Y-178052650D01*
X125666674Y-141842650D02*
X95279940Y-172229384D01*
%TO.N,/IC3*%
X294656940Y-215342650D02*
X294656940Y-225092650D01*
X102446940Y-183132650D02*
X104906940Y-185592650D01*
X287446940Y-145092650D02*
X282696940Y-140342650D01*
X293406940Y-214092650D02*
X294656940Y-215342650D01*
X177286940Y-212462650D02*
X176406940Y-213342650D01*
X466656940Y-227842650D02*
X468656940Y-225842650D01*
X177286940Y-200282650D02*
X177286940Y-212462650D01*
X294656940Y-225092650D02*
X297406940Y-227842650D01*
X104906940Y-219092650D02*
X113406940Y-227592650D01*
X470406940Y-183272650D02*
X470406940Y-183132650D01*
X468656940Y-185022650D02*
X470406940Y-183272650D01*
X94025940Y-177751650D02*
X99406940Y-183132650D01*
X99406940Y-183132650D02*
X102446940Y-183132650D01*
X287446940Y-216092650D02*
X287446940Y-215552650D01*
X282696940Y-140342650D02*
X125393250Y-140342650D01*
X287446940Y-215552650D02*
X288906940Y-214092650D01*
X287446940Y-221302650D02*
X287446940Y-216092650D01*
X125393250Y-140342650D02*
X94025940Y-171709960D01*
X113406940Y-227592650D02*
X176156940Y-227592650D01*
X297406940Y-227842650D02*
X466656940Y-227842650D01*
X468656940Y-225842650D02*
X468656940Y-185022650D01*
X281156940Y-227592650D02*
X287446940Y-221302650D01*
X104906940Y-185592650D02*
X104906940Y-219092650D01*
X94025940Y-171709960D02*
X94025940Y-177751650D01*
X176406940Y-213342650D02*
X176156940Y-213592650D01*
X176156940Y-227592650D02*
X281156940Y-227592650D01*
X288906940Y-214092650D02*
X293406940Y-214092650D01*
X176156940Y-213592650D02*
X176156940Y-220592650D01*
D35*
%TO.N,/UART_A*%
X285106940Y-200292650D02*
X289906940Y-205092650D01*
X285106940Y-184042650D02*
X285106940Y-200292650D01*
X289906940Y-205092650D02*
X293656940Y-205092650D01*
%TO.N,/UART_B*%
X284706940Y-204642650D02*
X285156940Y-205092650D01*
X285156940Y-205092650D02*
X280906940Y-205092650D01*
X284706940Y-184042650D02*
X284706940Y-204642650D01*
D36*
%TO.N,/U1*%
X293906940Y-209592650D02*
X295656940Y-209592650D01*
X281221940Y-212157650D02*
X283786940Y-209592650D01*
X464406940Y-177102384D02*
X468536674Y-172972650D01*
X127286940Y-145092650D02*
X99406940Y-172972650D01*
D35*
X293656940Y-206917650D02*
X293656940Y-209592650D01*
D36*
X468536674Y-172972650D02*
X470406940Y-172972650D01*
X187446940Y-210882650D02*
X188906940Y-212342650D01*
X110406940Y-181842650D02*
X110406940Y-215842650D01*
X275406940Y-221842650D02*
X277286940Y-219962650D01*
X188906940Y-212342650D02*
X188906940Y-221842650D01*
X293656940Y-209592650D02*
X293906940Y-209592650D01*
D35*
X280906940Y-206917650D02*
X280906940Y-211842650D01*
D36*
X299406940Y-213342650D02*
X299406940Y-222842650D01*
X299906940Y-223342650D02*
X464156940Y-223342650D01*
X277286940Y-145092650D02*
X127286940Y-145092650D01*
D35*
X280906940Y-211842650D02*
X281221940Y-212157650D01*
D36*
X110406940Y-215842650D02*
X116406940Y-221842650D01*
X99406940Y-172972650D02*
X101536940Y-172972650D01*
X464156940Y-223342650D02*
X464406940Y-223092650D01*
X277286940Y-216092650D02*
X281221940Y-212157650D01*
X188906940Y-221842650D02*
X275406940Y-221842650D01*
X295656940Y-209592650D02*
X299406940Y-213342650D01*
X116406940Y-221842650D02*
X188906940Y-221842650D01*
X187446940Y-200282650D02*
X187446940Y-210882650D01*
X299406940Y-222842650D02*
X299906940Y-223342650D01*
X283786940Y-209592650D02*
X293656940Y-209592650D01*
X101536940Y-172972650D02*
X110406940Y-181842650D01*
X464406940Y-223092650D02*
X464406940Y-177102384D01*
X277286940Y-219962650D02*
X277286940Y-216092650D01*
%TO.N,/U2*%
X92906940Y-171942248D02*
X92906940Y-181712650D01*
X107656940Y-228842650D02*
X99406940Y-220592650D01*
X287026940Y-139592650D02*
X125256538Y-139592650D01*
X186656940Y-217842650D02*
X186656940Y-220592650D01*
X292406940Y-228842650D02*
X186656940Y-228842650D01*
X467406940Y-228842650D02*
X292406940Y-228842650D01*
X184906940Y-216092650D02*
X186156940Y-217342650D01*
X292526940Y-216092650D02*
X292526940Y-220842650D01*
X470406940Y-225842650D02*
X467406940Y-228842650D01*
X186156940Y-217342650D02*
X186656940Y-217842650D01*
X292526940Y-145092650D02*
X287026940Y-139592650D01*
X292526940Y-228722650D02*
X292406940Y-228842650D01*
D35*
X285156940Y-206917650D02*
X286231940Y-206917650D01*
D36*
X125256538Y-139592650D02*
X92906940Y-171942248D01*
X92906940Y-181712650D02*
X99406940Y-188212650D01*
X292526940Y-220842650D02*
X292526940Y-228722650D01*
X99406940Y-220592650D02*
X99406940Y-188212650D01*
D35*
X289906940Y-206917650D02*
X289081940Y-206917650D01*
D36*
X470406940Y-188212650D02*
X470406940Y-225842650D01*
D35*
X289081940Y-206917650D02*
X287656940Y-208342650D01*
D36*
X186656940Y-228842650D02*
X107656940Y-228842650D01*
D35*
X286231940Y-206917650D02*
X287656940Y-208342650D01*
D36*
X184906940Y-203592650D02*
X184906940Y-216092650D01*
D35*
%TO.N,Net-(C1-Pad1)*%
X277656940Y-193492650D02*
X280606940Y-193492650D01*
X280606940Y-193492650D02*
X280706940Y-193592650D01*
X274481940Y-193492650D02*
X274406940Y-193417650D01*
X277656940Y-193492650D02*
X274481940Y-193492650D01*
%TO.N,/M1_B2*%
X281456940Y-179192650D02*
X269056940Y-179192650D01*
X269056940Y-179192650D02*
X254156940Y-194092650D01*
X140156940Y-200592650D02*
X124597640Y-200592650D01*
X124597640Y-200592650D02*
X123477540Y-201712750D01*
X147156940Y-203592650D02*
X143156940Y-203592650D01*
X143156940Y-203592650D02*
X140156940Y-200592650D01*
X156656940Y-194092650D02*
X147156940Y-203592650D01*
X254156940Y-194092650D02*
X156656940Y-194092650D01*
%TO.N,/M1_B1*%
X281456940Y-179992650D02*
X280994236Y-179992650D01*
X280087560Y-179872050D02*
X272127540Y-179872050D01*
X280994236Y-179992650D02*
X280785636Y-179784050D01*
X280175560Y-179784050D02*
X280087560Y-179872050D01*
X124607340Y-208342650D02*
X123477540Y-209472450D01*
X137406940Y-208342650D02*
X124607340Y-208342650D01*
X140156940Y-211092650D02*
X137406940Y-208342650D01*
X254656940Y-197342650D02*
X160156940Y-197342650D01*
X272127540Y-179872050D02*
X254656940Y-197342650D01*
X146406940Y-211092650D02*
X140156940Y-211092650D01*
X280785636Y-179784050D02*
X280175560Y-179784050D01*
X160156940Y-197342650D02*
X146406940Y-211092650D01*
%TO.N,/M1_A2*%
X146221808Y-178194891D02*
X146058140Y-178358559D01*
X148906940Y-179092650D02*
X155906940Y-186092650D01*
X148009181Y-178194891D02*
X146221808Y-178194891D01*
X146058140Y-178358559D02*
X146058140Y-178474291D01*
X255656940Y-186092650D02*
X263756940Y-177992650D01*
X148906940Y-179092650D02*
X148009181Y-178194891D01*
X155906940Y-186092650D02*
X255656940Y-186092650D01*
X263756940Y-177992650D02*
X281456940Y-177992650D01*
%TO.N,/M1_B3*%
X268956940Y-178792650D02*
X254156940Y-193592650D01*
X254156940Y-193592650D02*
X156406940Y-193592650D01*
X281456940Y-178792650D02*
X268956940Y-178792650D01*
X149406940Y-200592650D02*
X148286840Y-201712750D01*
X156406940Y-193592650D02*
X149406940Y-200592650D01*
X148286840Y-201712750D02*
X146336340Y-201712750D01*
%TO.N,/M1_A4*%
X263406940Y-175592650D02*
X253906940Y-185092650D01*
X282706940Y-176497518D02*
X281802072Y-175592650D01*
X282706940Y-177142650D02*
X282706940Y-176497518D01*
X253906940Y-185092650D02*
X166906940Y-185092650D01*
X166906940Y-185092650D02*
X150656940Y-168842650D01*
X125348281Y-168842650D02*
X123476340Y-170714591D01*
X150656940Y-168842650D02*
X125348281Y-168842650D01*
X281802072Y-175592650D02*
X263406940Y-175592650D01*
%TO.N,/M1_A3*%
X123477540Y-178474291D02*
X125109181Y-176842650D01*
X125109181Y-176842650D02*
X142156940Y-176842650D01*
X281456940Y-178392650D02*
X264606940Y-178392650D01*
X152656940Y-187342650D02*
X142156940Y-176842650D01*
X255656940Y-187342650D02*
X152656940Y-187342650D01*
X264606940Y-178392650D02*
X255656940Y-187342650D01*
%TO.N,/M1_B4*%
X279971828Y-179592650D02*
X271906940Y-179592650D01*
X271906940Y-179592650D02*
X254656940Y-196842650D01*
X281456940Y-179592650D02*
X280989367Y-179592650D01*
X280989367Y-179592650D02*
X280901367Y-179504650D01*
X254656940Y-196842650D02*
X159656940Y-196842650D01*
X280901367Y-179504650D02*
X280059828Y-179504650D01*
X159656940Y-196842650D02*
X147027140Y-209472450D01*
X280059828Y-179504650D02*
X279971828Y-179592650D01*
X147027140Y-209472450D02*
X146336340Y-209472450D01*
%TO.N,/M1_A1*%
X149278881Y-170714591D02*
X146336340Y-170714591D01*
X254156940Y-185592650D02*
X263656940Y-176092650D01*
X154156940Y-175592650D02*
X164156940Y-185592650D01*
X164156940Y-185592650D02*
X254156940Y-185592650D01*
X154156940Y-175592650D02*
X149278881Y-170714591D01*
X281906940Y-176092650D02*
X282306940Y-176492650D01*
X263656940Y-176092650D02*
X281906940Y-176092650D01*
X282306940Y-176492650D02*
X282306940Y-177142650D01*
%TO.N,/M2_B2*%
X281456940Y-181192650D02*
X272056940Y-181192650D01*
X250156940Y-203092650D02*
X240406940Y-203092650D01*
X238096840Y-200782550D02*
X224407740Y-200782550D01*
X240406940Y-203092650D02*
X238096840Y-200782550D01*
X272056940Y-181192650D02*
X250156940Y-203092650D01*
X224407740Y-200782550D02*
X223477540Y-201712750D01*
%TO.N,/M2_A2*%
X251406940Y-174592650D02*
X247525299Y-178474291D01*
X247525299Y-178474291D02*
X246336340Y-178474291D01*
X283506940Y-176297518D02*
X281802072Y-174592650D01*
X283506940Y-177142650D02*
X283506940Y-176297518D01*
X281802072Y-174592650D02*
X251406940Y-174592650D01*
%TO.N,/M2_B3*%
X247906940Y-200782550D02*
X246872609Y-200782550D01*
X280116960Y-180842650D02*
X280175560Y-180901250D01*
X280994236Y-180792650D02*
X281456940Y-180792650D01*
X247906940Y-200782550D02*
X251967040Y-200782550D01*
X280175560Y-180901250D02*
X280885636Y-180901250D01*
X246872609Y-200782550D02*
X246058140Y-201597019D01*
X251967040Y-200782550D02*
X271906940Y-180842650D01*
X246058140Y-201597019D02*
X246058140Y-201712750D01*
X280885636Y-180901250D02*
X280994236Y-180792650D01*
X271906940Y-180842650D02*
X280116960Y-180842650D01*
%TO.N,/M2_A4*%
X284706940Y-177142650D02*
X284706940Y-173892650D01*
X223198140Y-170598859D02*
X223198140Y-170714591D01*
X224704349Y-169092650D02*
X223198140Y-170598859D01*
X284706940Y-173892650D02*
X284406940Y-173592650D01*
X247156940Y-169092650D02*
X224704349Y-169092650D01*
X251656940Y-173592650D02*
X247156940Y-169092650D01*
X284406940Y-173592650D02*
X251656940Y-173592650D01*
%TO.N,/M2_A1*%
X283906940Y-176302386D02*
X283906940Y-177142650D01*
X246336340Y-170714591D02*
X247528881Y-170714591D01*
X250906940Y-174092650D02*
X281697204Y-174092650D01*
X247528881Y-170714591D02*
X250906940Y-174092650D01*
X281697204Y-174092650D02*
X283906940Y-176302386D01*
%TO.N,/M2_A3*%
X227359181Y-174592650D02*
X223477540Y-178474291D01*
X252156940Y-175092650D02*
X246906940Y-180342650D01*
X246906940Y-180342650D02*
X244906940Y-180342650D01*
X283106940Y-176292650D02*
X281906940Y-175092650D01*
X239156940Y-174592650D02*
X227359181Y-174592650D01*
X281906940Y-175092650D02*
X252156940Y-175092650D01*
X283106940Y-177142650D02*
X283106940Y-176292650D01*
X244906940Y-180342650D02*
X239156940Y-174592650D01*
%TO.N,/M2_B4*%
X274457340Y-208542250D02*
X249156940Y-208542250D01*
X283906940Y-184042650D02*
X283906940Y-199092650D01*
X246872609Y-208542250D02*
X246058140Y-209356719D01*
X283906940Y-199092650D02*
X274457340Y-208542250D01*
X246058140Y-209356719D02*
X246058140Y-209472450D01*
X249156940Y-208542250D02*
X246872609Y-208542250D01*
%TO.N,/M2_B1*%
X284306940Y-199442650D02*
X274277140Y-209472450D01*
X224407740Y-208542250D02*
X223477540Y-209472450D01*
X284306940Y-184042650D02*
X284283140Y-184066450D01*
X235106540Y-208542250D02*
X224407740Y-208542250D01*
X248906940Y-209472450D02*
X247286740Y-211092650D01*
X237656940Y-211092650D02*
X235106540Y-208542250D01*
X247286740Y-211092650D02*
X237656940Y-211092650D01*
X284283140Y-184066450D02*
X284283140Y-184342650D01*
X274277140Y-209472450D02*
X248906940Y-209472450D01*
X284306940Y-184042650D02*
X284306940Y-199442650D01*
%TO.N,/M3_B1*%
X285906940Y-193592650D02*
X285906940Y-184042650D01*
X321406940Y-207592650D02*
X299906940Y-207592650D01*
X321406940Y-207592650D02*
X323007340Y-209193050D01*
X323007340Y-209193050D02*
X323476340Y-209193050D01*
X299906940Y-207592650D02*
X285906940Y-193592650D01*
%TO.N,/M3_B4*%
X285506940Y-184042650D02*
X285506940Y-193942650D01*
X344466140Y-211342650D02*
X346139374Y-209669416D01*
X321406940Y-209472450D02*
X323277140Y-211342650D01*
X285506940Y-193942650D02*
X301036740Y-209472450D01*
X301036740Y-209472450D02*
X321406940Y-209472450D01*
X323277140Y-211342650D02*
X344466140Y-211342650D01*
%TO.N,/M3_B3*%
X286706940Y-186892650D02*
X286706940Y-184042650D01*
X321656940Y-201712750D02*
X301527040Y-201712750D01*
X344956440Y-203092650D02*
X346139374Y-201909716D01*
X321656940Y-201712750D02*
X323036840Y-203092650D01*
X323036840Y-203092650D02*
X344956440Y-203092650D01*
X301527040Y-201712750D02*
X286706940Y-186892650D01*
%TO.N,/M3_A1*%
X297156940Y-175592650D02*
X315406940Y-175592650D01*
X344714399Y-169092650D02*
X346336340Y-170714591D01*
X285106940Y-177142650D02*
X285106940Y-174392650D01*
X286406940Y-173092650D02*
X294656940Y-173092650D01*
X294656940Y-173092650D02*
X297156940Y-175592650D01*
X315406940Y-175592650D02*
X321906940Y-169092650D01*
X285106940Y-174392650D02*
X286406940Y-173092650D01*
X321906940Y-169092650D02*
X344714399Y-169092650D01*
%TO.N,/M3_A3*%
X323476340Y-178474291D02*
X321624099Y-176622050D01*
X321406940Y-176622050D02*
X296686340Y-176622050D01*
X294156940Y-174092650D02*
X286656940Y-174092650D01*
X296686340Y-176622050D02*
X294156940Y-174092650D01*
X285906940Y-174842650D02*
X285906940Y-177142650D01*
X321624099Y-176622050D02*
X321406940Y-176622050D01*
X286656940Y-174092650D02*
X285906940Y-174842650D01*
%TO.N,/M3_A4*%
X296936340Y-176122050D02*
X317127540Y-176122050D01*
X285506940Y-177142650D02*
X285506940Y-174742650D01*
X317127540Y-176122050D02*
X322534999Y-170714591D01*
X286656940Y-173592650D02*
X294406940Y-173592650D01*
X285506940Y-174742650D02*
X286656940Y-173592650D01*
X322534999Y-170714591D02*
X323476340Y-170714591D01*
X294406940Y-173592650D02*
X296936340Y-176122050D01*
%TO.N,/M3_A2*%
X287106940Y-176679946D02*
X289194236Y-174592650D01*
X293906940Y-174592650D02*
X299156940Y-179842650D01*
X344455899Y-176592650D02*
X346337540Y-178474291D01*
X289194236Y-174592650D02*
X293906940Y-174592650D01*
X299156940Y-179842650D02*
X324406940Y-179842650D01*
X324406940Y-179842650D02*
X327656940Y-176592650D01*
X327656940Y-176592650D02*
X344455899Y-176592650D01*
X287106940Y-177142650D02*
X287106940Y-176679946D01*
%TO.N,/M3_B2*%
X287106940Y-184042650D02*
X287106940Y-186792650D01*
X321906940Y-200342650D02*
X322997640Y-201433350D01*
X300656940Y-200342650D02*
X321906940Y-200342650D01*
X322997640Y-201433350D02*
X323476340Y-201433350D01*
X287106940Y-186792650D02*
X300656940Y-200342650D01*
%TO.N,/M4_A2*%
X428906940Y-176592650D02*
X444454699Y-176592650D01*
X444454699Y-176592650D02*
X446336340Y-178474291D01*
X419406940Y-186092650D02*
X428906940Y-176592650D01*
X288356940Y-181992650D02*
X290056940Y-181992650D01*
X291656940Y-185092650D02*
X292656940Y-186092650D01*
X290056940Y-181992650D02*
X291656940Y-183592650D01*
X292656940Y-186092650D02*
X419406940Y-186092650D01*
X291656940Y-183592650D02*
X291656940Y-185092650D01*
%TO.N,/M4_A1*%
X290756940Y-181192650D02*
X292656940Y-183092650D01*
X420906940Y-172342650D02*
X444708281Y-172342650D01*
X444708281Y-172342650D02*
X446336340Y-170714591D01*
X408406940Y-184842650D02*
X420906940Y-172342650D01*
X288356940Y-181192650D02*
X290756940Y-181192650D01*
X292656940Y-183092650D02*
X292656940Y-184592650D01*
X292906940Y-184842650D02*
X408406940Y-184842650D01*
X292656940Y-184592650D02*
X292906940Y-184842650D01*
%TO.N,/M4_B3*%
X289606940Y-182792650D02*
X288356940Y-182792650D01*
X446336340Y-201712750D02*
X444706440Y-203342650D01*
X419656940Y-201712750D02*
X352277040Y-201712750D01*
X290406940Y-186092650D02*
X290406940Y-183592650D01*
X421286840Y-203342650D02*
X419656940Y-201712750D01*
X348156940Y-197592650D02*
X301906940Y-197592650D01*
X444706440Y-203342650D02*
X421286840Y-203342650D01*
X301906940Y-197592650D02*
X290406940Y-186092650D01*
X290406940Y-183592650D02*
X289606940Y-182792650D01*
X352277040Y-201712750D02*
X348156940Y-197592650D01*
%TO.N,/M4_B2*%
X423247640Y-201433350D02*
X423476340Y-201433350D01*
X348406940Y-197092650D02*
X351656940Y-200342650D01*
X288356940Y-182392650D02*
X289956940Y-182392650D01*
X289956940Y-182392650D02*
X290906940Y-183342650D01*
X290906940Y-183342650D02*
X290906940Y-185592650D01*
X351656940Y-200342650D02*
X422156940Y-200342650D01*
X422156940Y-200342650D02*
X423247640Y-201433350D01*
X302406940Y-197092650D02*
X348406940Y-197092650D01*
X290906940Y-185592650D02*
X302406940Y-197092650D01*
%TO.N,/M4_A3*%
X292156940Y-184842650D02*
X292906940Y-185592650D01*
X292906940Y-185592650D02*
X411406940Y-185592650D01*
X290406940Y-181592650D02*
X292156940Y-183342650D01*
X292156940Y-183342650D02*
X292156940Y-184842650D01*
X411406940Y-185592650D02*
X418525299Y-178474291D01*
X288356940Y-181592650D02*
X290406940Y-181592650D01*
X418525299Y-178474291D02*
X423476340Y-178474291D01*
%TO.N,/M4_A4*%
X288356940Y-180792650D02*
X291106940Y-180792650D01*
X293406940Y-184342650D02*
X407156940Y-184342650D01*
X291106940Y-180792650D02*
X293156940Y-182842650D01*
X407156940Y-184342650D02*
X420784999Y-170714591D01*
X293156940Y-182842650D02*
X293156940Y-184092650D01*
X420784999Y-170714591D02*
X423476340Y-170714591D01*
X293156940Y-184092650D02*
X293406940Y-184342650D01*
%TO.N,/M4_B1*%
X357906940Y-208342650D02*
X422406940Y-208342650D01*
X289256940Y-183192650D02*
X289656940Y-183592650D01*
X289656940Y-183592650D02*
X289656940Y-187842650D01*
X347906940Y-198342650D02*
X357906940Y-208342650D01*
X289656940Y-187842650D02*
X300156940Y-198342650D01*
X288356940Y-183192650D02*
X289256940Y-183192650D01*
X423257340Y-209193050D02*
X423476340Y-209193050D01*
X300156940Y-198342650D02*
X347906940Y-198342650D01*
X422406940Y-208342650D02*
X423257340Y-209193050D01*
%TO.N,/M4_B4*%
X444466140Y-211342650D02*
X421777140Y-211342650D01*
X287506940Y-186692650D02*
X287506940Y-184042650D01*
X419906940Y-209472450D02*
X357536740Y-209472450D01*
X357536740Y-209472450D02*
X347156940Y-199092650D01*
X299906940Y-199092650D02*
X287506940Y-186692650D01*
X421777140Y-211342650D02*
X419906940Y-209472450D01*
X347156940Y-199092650D02*
X299906940Y-199092650D01*
X446336340Y-209472450D02*
X444466140Y-211342650D01*
D36*
%TO.N,Net-(J11-Pin_2)*%
X384116940Y-139092650D02*
X384906940Y-139882650D01*
X379906940Y-139092650D02*
X384116940Y-139092650D01*
X379906940Y-143092650D02*
X379906940Y-139092650D01*
D35*
%TO.N,/USB_N*%
X286306940Y-177142650D02*
X286306940Y-175442650D01*
X286306940Y-175442650D02*
X286906940Y-174842650D01*
%TO.N,/USB_P*%
X286706940Y-176042650D02*
X287906940Y-174842650D01*
X286706940Y-177142650D02*
X286706940Y-176042650D01*
D36*
%TO.N,Net-(J13-Pin_2)*%
X365906940Y-139092650D02*
X369866940Y-139092650D01*
X365906940Y-143092650D02*
X365906940Y-139092650D01*
X369866940Y-139092650D02*
X370656940Y-139882650D01*
D35*
%TO.N,/RST*%
X287156940Y-161092650D02*
X291031940Y-161092650D01*
X286906940Y-161092650D02*
X285906940Y-162092650D01*
X287156940Y-161092650D02*
X287156940Y-158967650D01*
X287156940Y-161092650D02*
X286906940Y-161092650D01*
X276406940Y-172842650D02*
X276406940Y-165342650D01*
X285906940Y-162092650D02*
X275906940Y-162092650D01*
X275656940Y-164592650D02*
X276406940Y-165342650D01*
X275906940Y-162092650D02*
X275656940Y-162342650D01*
X281456940Y-181992650D02*
X280695584Y-181992650D01*
X275656940Y-162342650D02*
X275656940Y-164592650D01*
X280695584Y-181992650D02*
X280128307Y-182559927D01*
X291031940Y-161092650D02*
X293156940Y-158967650D01*
%TO.N,/BOOT*%
X280906940Y-161092650D02*
X282656940Y-159342650D01*
D37*
X274656940Y-154842650D02*
X274656940Y-157592650D01*
D35*
X276656940Y-161092650D02*
X280906940Y-161092650D01*
X274906940Y-162592650D02*
X274906940Y-172842650D01*
D37*
X305406940Y-137342650D02*
X293156940Y-149592650D01*
X276156940Y-159092650D02*
X276656940Y-159092650D01*
X274656940Y-157592650D02*
X276156940Y-159092650D01*
X362656940Y-137342650D02*
X305406940Y-137342650D01*
D35*
X282656940Y-159342650D02*
X282656940Y-159092650D01*
D37*
X287906940Y-152592650D02*
X276906940Y-152592650D01*
D35*
X276406940Y-161092650D02*
X274906940Y-162592650D01*
X280179341Y-181592650D02*
X280017867Y-181754124D01*
X276656940Y-161092650D02*
X276406940Y-161092650D01*
X276656940Y-161092650D02*
X276656940Y-159092650D01*
D37*
X276906940Y-152592650D02*
X274656940Y-154842650D01*
D35*
X281456940Y-181592650D02*
X280179341Y-181592650D01*
D37*
%TO.N,/CS1*%
X351656940Y-180342650D02*
X382906940Y-149092650D01*
X290656940Y-178342650D02*
X292906940Y-180592650D01*
D35*
X287506940Y-177142650D02*
X288806940Y-175842650D01*
X288806940Y-175842650D02*
X288906940Y-175842650D01*
D37*
X341656940Y-180342650D02*
X351656940Y-180342650D01*
X290406940Y-178342650D02*
X290656940Y-178342650D01*
X324906940Y-180592650D02*
X328406940Y-177092650D01*
X292906940Y-180592650D02*
X324906940Y-180592650D01*
X328406940Y-177092650D02*
X338406940Y-177092650D01*
X338406940Y-177092650D02*
X341656940Y-180342650D01*
%TO.N,/GPIO3*%
X277906940Y-172842650D02*
X277906940Y-165342650D01*
X294406940Y-165592650D02*
X294406940Y-170342650D01*
X298156940Y-175092650D02*
X314906940Y-175092650D01*
D35*
X280456940Y-180392650D02*
X280406940Y-180342650D01*
X281456940Y-180392650D02*
X280456940Y-180392650D01*
D37*
X314906940Y-175092650D02*
X323656940Y-166342650D01*
X278656940Y-164592650D02*
X293406940Y-164592650D01*
X400906940Y-147092650D02*
X404406940Y-143592650D01*
X404406940Y-138092650D02*
X403656940Y-137342650D01*
X403656940Y-137342650D02*
X399156940Y-137342650D01*
X293406940Y-164592650D02*
X294406940Y-165592650D01*
X323656940Y-164092650D02*
X340656940Y-147092650D01*
X404406940Y-143592650D02*
X404406940Y-138092650D01*
X295906940Y-172842650D02*
X298156940Y-175092650D01*
X277906940Y-165342650D02*
X278656940Y-164592650D01*
X323656940Y-166342650D02*
X323656940Y-164092650D01*
X340656940Y-147092650D02*
X400906940Y-147092650D01*
%TD*%
%TA.AperFunction,Conductor*%
%TO.N,+3.3V*%
G36*
X312849979Y-162612335D02*
G01*
X312895734Y-162665139D01*
X312906940Y-162716650D01*
X312906940Y-170368150D01*
X312887255Y-170435189D01*
X312834451Y-170480944D01*
X312782940Y-170492150D01*
X311699882Y-170492150D01*
X311632843Y-170472465D01*
X311588794Y-170423244D01*
X311573970Y-170393354D01*
X311454662Y-170244928D01*
X311454661Y-170244927D01*
X311306235Y-170125619D01*
X311306232Y-170125617D01*
X311135637Y-170041010D01*
X310950832Y-169995050D01*
X310929446Y-169993600D01*
X310908063Y-169992150D01*
X310908060Y-169992150D01*
X310005817Y-169992150D01*
X310005814Y-169992151D01*
X309963053Y-169995049D01*
X309963052Y-169995049D01*
X309778243Y-170041010D01*
X309607647Y-170125617D01*
X309607644Y-170125619D01*
X309459220Y-170244926D01*
X309459218Y-170244928D01*
X309431565Y-170279328D01*
X309403266Y-170314535D01*
X309345922Y-170354453D01*
X309276100Y-170357033D01*
X309215967Y-170321454D01*
X309209971Y-170314534D01*
X309154304Y-170245280D01*
X309005965Y-170126042D01*
X309005962Y-170126040D01*
X308835463Y-170041481D01*
X308650764Y-169995547D01*
X308608037Y-169992650D01*
X308406940Y-169992650D01*
X308406940Y-172992650D01*
X308608037Y-172992650D01*
X308650764Y-172989752D01*
X308835463Y-172943818D01*
X309005962Y-172859259D01*
X309005965Y-172859257D01*
X309154306Y-172740017D01*
X309154307Y-172740016D01*
X309209973Y-172670765D01*
X309267316Y-172630846D01*
X309337138Y-172628266D01*
X309397271Y-172663844D01*
X309403245Y-172670739D01*
X309459218Y-172740372D01*
X309459220Y-172740374D01*
X309607644Y-172859680D01*
X309607647Y-172859682D01*
X309778242Y-172944289D01*
X309778243Y-172944289D01*
X309778247Y-172944291D01*
X309963051Y-172990250D01*
X310005817Y-172993150D01*
X310908062Y-172993149D01*
X310950829Y-172990250D01*
X311135633Y-172944291D01*
X311306236Y-172859680D01*
X311454662Y-172740372D01*
X311573970Y-172591946D01*
X311588794Y-172562056D01*
X311636215Y-172510743D01*
X311699882Y-172493150D01*
X312782940Y-172493150D01*
X312849979Y-172512835D01*
X312895734Y-172565639D01*
X312906940Y-172617150D01*
X312906940Y-174218650D01*
X312887255Y-174285689D01*
X312834451Y-174331444D01*
X312782940Y-174342650D01*
X303280940Y-174342650D01*
X303213901Y-174322965D01*
X303168146Y-174270161D01*
X303156940Y-174218650D01*
X303156940Y-172617150D01*
X303176625Y-172550111D01*
X303229429Y-172504356D01*
X303280940Y-172493150D01*
X304613998Y-172493150D01*
X304681037Y-172512835D01*
X304725086Y-172562056D01*
X304739909Y-172591945D01*
X304859217Y-172740371D01*
X304859218Y-172740372D01*
X305007644Y-172859680D01*
X305007647Y-172859682D01*
X305178242Y-172944289D01*
X305178243Y-172944289D01*
X305178247Y-172944291D01*
X305363051Y-172990250D01*
X305405817Y-172993150D01*
X306308062Y-172993149D01*
X306350829Y-172990250D01*
X306535633Y-172944291D01*
X306706236Y-172859680D01*
X306854662Y-172740372D01*
X306910615Y-172670762D01*
X306967955Y-172630846D01*
X307037777Y-172628266D01*
X307097910Y-172663844D01*
X307103907Y-172670765D01*
X307159572Y-172740016D01*
X307159573Y-172740017D01*
X307307914Y-172859257D01*
X307307917Y-172859259D01*
X307478416Y-172943818D01*
X307663115Y-172989752D01*
X307705843Y-172992650D01*
X307906940Y-172992650D01*
X307906940Y-169992650D01*
X307705843Y-169992650D01*
X307663115Y-169995547D01*
X307478416Y-170041481D01*
X307307917Y-170126040D01*
X307307914Y-170126042D01*
X307159575Y-170245281D01*
X307103907Y-170314535D01*
X307046564Y-170354453D01*
X306976741Y-170357033D01*
X306916609Y-170321454D01*
X306910613Y-170314534D01*
X306854662Y-170244928D01*
X306854661Y-170244927D01*
X306706235Y-170125619D01*
X306706232Y-170125617D01*
X306535637Y-170041010D01*
X306350832Y-169995050D01*
X306329446Y-169993600D01*
X306308063Y-169992150D01*
X306308060Y-169992150D01*
X305405817Y-169992150D01*
X305405814Y-169992151D01*
X305363053Y-169995049D01*
X305363052Y-169995049D01*
X305178243Y-170041010D01*
X305007647Y-170125617D01*
X305007644Y-170125619D01*
X304859218Y-170244927D01*
X304859217Y-170244928D01*
X304739909Y-170393354D01*
X304725086Y-170423244D01*
X304677665Y-170474557D01*
X304613998Y-170492150D01*
X303280940Y-170492150D01*
X303213901Y-170472465D01*
X303168146Y-170419661D01*
X303156940Y-170368150D01*
X303156940Y-165750650D01*
X305756940Y-165750650D01*
X305767548Y-165869975D01*
X305767549Y-165869978D01*
X305823497Y-166065511D01*
X305917661Y-166245779D01*
X306046186Y-166403403D01*
X306203810Y-166531928D01*
X306384078Y-166626092D01*
X306579611Y-166682040D01*
X306579614Y-166682041D01*
X306698939Y-166692649D01*
X306698942Y-166692650D01*
X307906940Y-166692650D01*
X308406940Y-166692650D01*
X309614938Y-166692650D01*
X309614940Y-166692649D01*
X309734265Y-166682041D01*
X309734268Y-166682040D01*
X309929801Y-166626092D01*
X310110069Y-166531928D01*
X310267693Y-166403403D01*
X310396218Y-166245779D01*
X310490382Y-166065511D01*
X310546330Y-165869978D01*
X310546331Y-165869975D01*
X310556939Y-165750650D01*
X310556940Y-165750648D01*
X310556940Y-165442650D01*
X308406940Y-165442650D01*
X308406940Y-166692650D01*
X307906940Y-166692650D01*
X307906940Y-165442650D01*
X305756940Y-165442650D01*
X305756940Y-165750650D01*
X303156940Y-165750650D01*
X303156940Y-164634649D01*
X305756940Y-164634649D01*
X305756940Y-164942650D01*
X307906940Y-164942650D01*
X308406940Y-164942650D01*
X310556940Y-164942650D01*
X310556940Y-164634652D01*
X310556939Y-164634649D01*
X310546331Y-164515324D01*
X310546330Y-164515321D01*
X310490382Y-164319788D01*
X310396218Y-164139520D01*
X310267693Y-163981896D01*
X310110069Y-163853371D01*
X309929801Y-163759207D01*
X309734268Y-163703259D01*
X309734265Y-163703258D01*
X309614940Y-163692650D01*
X308406940Y-163692650D01*
X308406940Y-164942650D01*
X307906940Y-164942650D01*
X307906940Y-163692650D01*
X306698939Y-163692650D01*
X306579614Y-163703258D01*
X306579611Y-163703259D01*
X306384078Y-163759207D01*
X306203810Y-163853371D01*
X306046186Y-163981896D01*
X305917661Y-164139520D01*
X305823497Y-164319788D01*
X305767549Y-164515321D01*
X305767548Y-164515324D01*
X305756940Y-164634649D01*
X303156940Y-164634649D01*
X303156940Y-162716650D01*
X303176625Y-162649611D01*
X303229429Y-162603856D01*
X303280940Y-162592650D01*
X312782940Y-162592650D01*
X312849979Y-162612335D01*
G37*
%TD.AperFunction*%
%TD*%
M02*
