%TF.GenerationSoftware,KiCad,Pcbnew,8.0.8*%
%TF.CreationDate,2025-02-14T17:31:39-08:00*%
%TF.ProjectId,ClockProject,436c6f63-6b50-4726-9f6a-6563742e6b69,rev?*%
%TF.SameCoordinates,Original*%
%TF.FileFunction,Soldermask,Top*%
%TF.FilePolarity,Negative*%
%FSLAX46Y46*%
G04 Gerber Fmt 4.6, Leading zero omitted, Abs format (unit mm)*
G04 Created by KiCad (PCBNEW 8.0.8) date 2025-02-14 17:31:39*
%MOMM*%
%LPD*%
G01*
G04 APERTURE LIST*
%ADD10R,1.700000X1.700000*%
%ADD11O,1.700000X1.700000*%
%ADD12C,2.999740*%
%ADD13C,3.200000*%
%ADD14C,5.999987*%
%ADD15C,1.511200*%
G04 APERTURE END LIST*
D10*
%TO.C,J11*%
X384906940Y-137342650D03*
D11*
X384906940Y-139882650D03*
X384906940Y-142422650D03*
%TD*%
D10*
%TO.C,J9*%
X288656940Y-168842650D03*
D11*
X286116940Y-168842650D03*
X283576940Y-168842650D03*
X281036940Y-168842650D03*
%TD*%
D12*
%TO.C,M3*%
X325906865Y-165093572D03*
D13*
X347906940Y-174593332D03*
X321906940Y-174593332D03*
D14*
X334906940Y-180592650D03*
D12*
X346907840Y-190094791D03*
D13*
X347906940Y-205593332D03*
X321906940Y-205593332D03*
D12*
X325906865Y-215093472D03*
D15*
X346336340Y-170714591D03*
X346336340Y-178474291D03*
X323476340Y-178474291D03*
X323476340Y-170714591D03*
X323476340Y-209472450D03*
X323476340Y-201712750D03*
X346336340Y-201712750D03*
X346336340Y-209472450D03*
%TD*%
D12*
%TO.C,M2*%
X225906865Y-165093572D03*
D13*
X247906940Y-174593332D03*
X221906940Y-174593332D03*
D14*
X234906940Y-180592650D03*
D12*
X246907840Y-190094791D03*
D13*
X247906940Y-205593332D03*
X221906940Y-205593332D03*
D12*
X225906865Y-215093472D03*
D15*
X246336340Y-170714591D03*
X246336340Y-178474291D03*
X223476340Y-178474291D03*
X223476340Y-170714591D03*
X223476340Y-209472450D03*
X223476340Y-201712750D03*
X246336340Y-201712750D03*
X246336340Y-209472450D03*
%TD*%
D12*
%TO.C,M4*%
X425906865Y-165093572D03*
D13*
X447906940Y-174593332D03*
X421906940Y-174593332D03*
D14*
X434906940Y-180592650D03*
D12*
X446907840Y-190094791D03*
D13*
X447906940Y-205593332D03*
X421906940Y-205593332D03*
D12*
X425906865Y-215093472D03*
D15*
X446336340Y-170714591D03*
X446336340Y-178474291D03*
X423476340Y-178474291D03*
X423476340Y-170714591D03*
X423476340Y-209472450D03*
X423476340Y-201712750D03*
X446336340Y-201712750D03*
X446336340Y-209472450D03*
%TD*%
D10*
%TO.C,J10*%
X399156940Y-137342650D03*
D11*
X399156940Y-139882650D03*
X399156940Y-142422650D03*
%TD*%
D12*
%TO.C,M1*%
X125906865Y-165093572D03*
D13*
X147906940Y-174593332D03*
X121906940Y-174593332D03*
D14*
X134906940Y-180592650D03*
D12*
X146907840Y-190094791D03*
D13*
X147906940Y-205593332D03*
X121906940Y-205593332D03*
D12*
X125906865Y-215093472D03*
D15*
X146336340Y-170714591D03*
X146336340Y-178474291D03*
X123476340Y-178474291D03*
X123476340Y-170714591D03*
X123476340Y-209472450D03*
X123476340Y-201712750D03*
X146336340Y-201712750D03*
X146336340Y-209472450D03*
%TD*%
D10*
%TO.C,J13*%
X370656940Y-137342650D03*
D11*
X370656940Y-139882650D03*
X370656940Y-142422650D03*
%TD*%
M02*
