M48
; DRILL file {KiCad 8.0.8} date 2025-02-14T17:31:44-0800
; FORMAT={-:-/ absolute / inch / decimal}
; #@! TF.CreationDate,2025-02-14T17:31:44-08:00
; #@! TF.GenerationSoftware,Kicad,Pcbnew,8.0.8
; #@! TF.FileFunction,Plated,1,2,PTH
FMAT,2
INCH
; #@! TA.AperFunction,Plated,PTH,ViaDrill
T1C0.0120
; #@! TA.AperFunction,Plated,PTH,ViaDrill
T2C0.0240
; #@! TA.AperFunction,Plated,PTH,ComponentDrill
T3C0.0315
; #@! TA.AperFunction,Plated,PTH,ComponentDrill
T4C0.0394
%
G90
G05
T1
X10.5869Y-7.6316
X10.8231Y-6.8048
X10.8231Y-7.4249
X10.8822Y-6.8048
X10.9412Y-6.8048
X11.0243Y-7.1557
X11.0287Y-7.1874
X11.0396Y-7.1001
X11.0515Y-7.4643
X11.1184Y-7.2084
X11.1479Y-7.7497
X11.1676Y-6.7458
X11.1773Y-6.9096
X11.2955Y-6.8836
X11.3152Y-7.0115
X11.3349Y-6.0076
X11.3349Y-6.8836
X11.3546Y-7.671
X11.3743Y-6.9229
X11.394Y-7.0076
X11.4333Y-7.0214
X11.4333Y-7.7399
X11.5416Y-5.8895
X11.581Y-7.6907
X11.5908Y-6.421
X11.5908Y-6.7064
X11.6007Y-6.9426
X11.64Y-6.982
X11.6499Y-6.8048
X11.6991Y-6.4308
X11.7581Y-6.8639
X14.2778Y-5.4072
X15.0751Y-5.8698
T2
X3.9924Y-7.3099
X6.9353Y-8.6847
X6.9353Y-8.9603
X7.0141Y-8.6847
X7.0141Y-8.9111
X7.1322Y-8.6847
X7.1322Y-8.8619
X7.3487Y-8.6847
X7.3487Y-9.0096
X7.6637Y-7.8875
X7.8015Y-8.6651
X7.8015Y-8.8029
X11.2168Y-6.1109
X11.3054Y-5.5942
X11.3251Y-8.2025
X11.4168Y-8.6552
X11.5168Y-8.6946
X11.8861Y-6.4997
X12.3487Y-6.7517
X12.4078Y-6.7556
X18.6971Y-7.3099
T3
X4.8613Y-6.721
X4.8613Y-7.0265
X4.8613Y-7.9414
X4.8613Y-8.2469
X5.7613Y-6.721
X5.7613Y-7.0265
X5.7613Y-7.9414
X5.7613Y-8.2469
X8.7983Y-6.721
X8.7983Y-7.0265
X8.7983Y-7.9414
X8.7983Y-8.2469
X9.6983Y-6.721
X9.6983Y-7.0265
X9.6983Y-7.9414
X9.6983Y-8.2469
X12.7353Y-6.721
X12.7353Y-7.0265
X12.7353Y-7.9414
X12.7353Y-8.2469
X13.6353Y-6.721
X13.6353Y-7.0265
X13.6353Y-7.9414
X13.6353Y-8.2469
X16.6723Y-6.721
X16.6723Y-7.0265
X16.6723Y-7.9414
X16.6723Y-8.2469
X17.5723Y-6.721
X17.5723Y-7.0265
X17.5723Y-7.9414
X17.5723Y-8.2469
T4
X11.0644Y-6.6473
X11.1644Y-6.6473
X11.2644Y-6.6473
X11.3644Y-6.6473
X14.5928Y-5.4072
X14.5928Y-5.5072
X14.5928Y-5.6072
X15.1538Y-5.4072
X15.1538Y-5.5072
X15.1538Y-5.6072
X15.7148Y-5.4072
X15.7148Y-5.5072
X15.7148Y-5.6072
M30
