M48
; DRILL file {KiCad 8.0.8} date 2025-02-14T17:31:44-0800
; FORMAT={-:-/ absolute / inch / decimal}
; #@! TF.CreationDate,2025-02-14T17:31:44-08:00
; #@! TF.GenerationSoftware,Kicad,Pcbnew,8.0.8
; #@! TF.FileFunction,NonPlated,1,2,NPTH
FMAT,2
INCH
; #@! TA.AperFunction,NonPlated,NPTH,ComponentDrill
T1C0.1181
; #@! TA.AperFunction,NonPlated,NPTH,ComponentDrill
T2C0.1260
; #@! TA.AperFunction,NonPlated,NPTH,ComponentDrill
T3C0.2362
%
G90
G05
T1
X4.957Y-6.4997
X4.957Y-8.4682
X5.7838Y-7.484
X8.894Y-6.4997
X8.894Y-8.4682
X9.7208Y-7.484
X12.831Y-6.4997
X12.831Y-8.4682
X13.6578Y-7.484
X16.768Y-6.4997
X16.768Y-8.4682
X17.5948Y-7.484
T2
X4.7995Y-6.8738
X4.7995Y-8.0942
X5.8231Y-6.8738
X5.8231Y-8.0942
X8.7365Y-6.8738
X8.7365Y-8.0942
X9.7601Y-6.8738
X9.7601Y-8.0942
X12.6735Y-6.8738
X12.6735Y-8.0942
X13.6971Y-6.8738
X13.6971Y-8.0942
X16.6105Y-6.8738
X16.6105Y-8.0942
X17.6341Y-6.8738
X17.6341Y-8.0942
T3
X5.3113Y-7.1099
X9.2483Y-7.1099
X13.1853Y-7.1099
X17.1223Y-7.1099
M30
